<svg xmlns="http://www.w3.org/2000/svg" xmlns:xlink="http://www.w3.org/1999/xlink" width="500" zoomAndPan="magnify" viewBox="0 0 375 374.999991" height="500" preserveAspectRatio="xMidYMid meet" version="1.0"><defs><g/></defs><rect x="-37.5" width="450" fill="#ffffff" y="-37.499999" height="449.999989" fill-opacity="1"/><rect x="-37.5" width="450" fill="#ffffff" y="-37.499999" height="449.999989" fill-opacity="1"/><rect x="-37.5" width="450" fill="#ffffff" y="-37.499999" height="449.999989" fill-opacity="1"/><g fill="#000000" fill-opacity="1"><g transform="translate(93.028211, 204.750916)"><g><path d="M 25.421875 0.625 C 21.421875 0.625 17.726562 -0.363281 14.34375 -2.34375 C 10.96875 -4.320312 8.300781 -7.019531 6.34375 -10.4375 C 4.382812 -13.863281 3.40625 -17.597656 3.40625 -21.640625 C 3.40625 -25.679688 4.382812 -29.410156 6.34375 -32.828125 C 8.300781 -36.253906 10.96875 -38.957031 14.34375 -40.9375 C 17.726562 -42.914062 21.421875 -43.90625 25.421875 -43.90625 C 29.992188 -43.90625 34.007812 -42.65625 37.46875 -40.15625 C 40.9375 -37.664062 43.535156 -34.28125 45.265625 -30 L 40.015625 -30 C 38.566406 -32.84375 36.570312 -35.097656 34.03125 -36.765625 C 31.5 -38.429688 28.628906 -39.265625 25.421875 -39.265625 C 22.367188 -39.265625 19.539062 -38.484375 16.9375 -36.921875 C 14.34375 -35.359375 12.289062 -33.234375 10.78125 -30.546875 C 9.28125 -27.867188 8.53125 -24.898438 8.53125 -21.640625 C 8.53125 -18.390625 9.28125 -15.421875 10.78125 -12.734375 C 12.289062 -10.054688 14.34375 -7.929688 16.9375 -6.359375 C 19.539062 -4.796875 22.367188 -4.015625 25.421875 -4.015625 C 28.753906 -4.015625 31.695312 -4.847656 34.25 -6.515625 C 36.8125 -8.191406 38.816406 -10.453125 40.265625 -13.296875 L 45.515625 -13.296875 C 43.785156 -9.003906 41.175781 -5.609375 37.6875 -3.109375 C 34.207031 -0.617188 30.117188 0.625 25.421875 0.625 Z M 25.421875 0.625 "/></g></g></g><g fill="#000000" fill-opacity="1"><g transform="translate(141.012655, 204.750916)"><g><path d="M 25.734375 0.625 C 21.648438 0.625 17.894531 -0.363281 14.46875 -2.34375 C 11.050781 -4.320312 8.351562 -7.019531 6.375 -10.4375 C 4.394531 -13.863281 3.40625 -17.597656 3.40625 -21.640625 C 3.40625 -25.679688 4.394531 -29.410156 6.375 -32.828125 C 8.351562 -36.253906 11.050781 -38.957031 14.46875 -40.9375 C 17.894531 -42.914062 21.648438 -43.90625 25.734375 -43.90625 C 29.804688 -43.90625 33.550781 -42.914062 36.96875 -40.9375 C 40.394531 -38.957031 43.097656 -36.253906 45.078125 -32.828125 C 47.054688 -29.410156 48.046875 -25.679688 48.046875 -21.640625 C 48.046875 -17.597656 47.054688 -13.863281 45.078125 -10.4375 C 43.097656 -7.019531 40.394531 -4.320312 36.96875 -2.34375 C 33.550781 -0.363281 29.804688 0.625 25.734375 0.625 Z M 25.734375 -4.015625 C 28.859375 -4.015625 31.726562 -4.796875 34.34375 -6.359375 C 36.96875 -7.929688 39.050781 -10.054688 40.59375 -12.734375 C 42.144531 -15.421875 42.921875 -18.390625 42.921875 -21.640625 C 42.921875 -24.898438 42.144531 -27.867188 40.59375 -30.546875 C 39.050781 -33.234375 36.96875 -35.359375 34.34375 -36.921875 C 31.726562 -38.484375 28.859375 -39.265625 25.734375 -39.265625 C 22.597656 -39.265625 19.71875 -38.484375 17.09375 -36.921875 C 14.476562 -35.359375 12.394531 -33.234375 10.84375 -30.546875 C 9.300781 -27.867188 8.53125 -24.898438 8.53125 -21.640625 C 8.53125 -18.390625 9.300781 -15.421875 10.84375 -12.734375 C 12.394531 -10.054688 14.476562 -7.929688 17.09375 -6.359375 C 19.71875 -4.796875 22.597656 -4.015625 25.734375 -4.015625 Z M 25.734375 -4.015625 "/></g></g></g><g fill="#000000" fill-opacity="1"><g transform="translate(192.459883, 204.750916)"><g><path d="M 25.734375 0.625 C 21.648438 0.625 17.894531 -0.363281 14.46875 -2.34375 C 11.050781 -4.320312 8.351562 -7.019531 6.375 -10.4375 C 4.394531 -13.863281 3.40625 -17.597656 3.40625 -21.640625 C 3.40625 -25.679688 4.394531 -29.410156 6.375 -32.828125 C 8.351562 -36.253906 11.050781 -38.957031 14.46875 -40.9375 C 17.894531 -42.914062 21.648438 -43.90625 25.734375 -43.90625 C 29.804688 -43.90625 33.550781 -42.914062 36.96875 -40.9375 C 40.394531 -38.957031 43.097656 -36.253906 45.078125 -32.828125 C 47.054688 -29.410156 48.046875 -25.679688 48.046875 -21.640625 C 48.046875 -17.597656 47.054688 -13.863281 45.078125 -10.4375 C 43.097656 -7.019531 40.394531 -4.320312 36.96875 -2.34375 C 33.550781 -0.363281 29.804688 0.625 25.734375 0.625 Z M 25.734375 -4.015625 C 28.859375 -4.015625 31.726562 -4.796875 34.34375 -6.359375 C 36.96875 -7.929688 39.050781 -10.054688 40.59375 -12.734375 C 42.144531 -15.421875 42.921875 -18.390625 42.921875 -21.640625 C 42.921875 -24.898438 42.144531 -27.867188 40.59375 -30.546875 C 39.050781 -33.234375 36.96875 -35.359375 34.34375 -36.921875 C 31.726562 -38.484375 28.859375 -39.265625 25.734375 -39.265625 C 22.597656 -39.265625 19.71875 -38.484375 17.09375 -36.921875 C 14.476562 -35.359375 12.394531 -33.234375 10.84375 -30.546875 C 9.300781 -27.867188 8.53125 -24.898438 8.53125 -21.640625 C 8.53125 -18.390625 9.300781 -15.421875 10.84375 -12.734375 C 12.394531 -10.054688 14.476562 -7.929688 17.09375 -6.359375 C 19.71875 -4.796875 22.597656 -4.015625 25.734375 -4.015625 Z M 25.734375 -4.015625 "/></g></g></g><g fill="#000000" fill-opacity="1"><g transform="translate(243.907111, 204.750916)"><g><path d="M 27.515625 0 L 5.875 0 L 5.875 -43.296875 L 10.828125 -43.296875 L 10.828125 -4.640625 L 27.515625 -4.640625 Z M 27.515625 0 "/></g></g></g><g fill="#000000" fill-opacity="1"><g transform="translate(273.575744, 204.750916)"><g/></g></g><g fill="#000000" fill-opacity="1"><g transform="translate(106.074325, 290.199146)"><g><path d="M 25.421875 0.625 C 21.421875 0.625 17.726562 -0.363281 14.34375 -2.34375 C 10.96875 -4.320312 8.300781 -7.019531 6.34375 -10.4375 C 4.382812 -13.863281 3.40625 -17.597656 3.40625 -21.640625 C 3.40625 -25.679688 4.382812 -29.410156 6.34375 -32.828125 C 8.300781 -36.253906 10.96875 -38.957031 14.34375 -40.9375 C 17.726562 -42.914062 21.421875 -43.90625 25.421875 -43.90625 C 29.992188 -43.90625 34.007812 -42.65625 37.46875 -40.15625 C 40.9375 -37.664062 43.535156 -34.28125 45.265625 -30 L 40.015625 -30 C 38.566406 -32.84375 36.570312 -35.097656 34.03125 -36.765625 C 31.5 -38.429688 28.628906 -39.265625 25.421875 -39.265625 C 22.367188 -39.265625 19.539062 -38.484375 16.9375 -36.921875 C 14.34375 -35.359375 12.289062 -33.234375 10.78125 -30.546875 C 9.28125 -27.867188 8.53125 -24.898438 8.53125 -21.640625 C 8.53125 -18.390625 9.28125 -15.421875 10.78125 -12.734375 C 12.289062 -10.054688 14.34375 -7.929688 16.9375 -6.359375 C 19.539062 -4.796875 22.367188 -4.015625 25.421875 -4.015625 C 28.753906 -4.015625 31.695312 -4.847656 34.25 -6.515625 C 36.8125 -8.191406 38.816406 -10.453125 40.265625 -13.296875 L 45.515625 -13.296875 C 43.785156 -9.003906 41.175781 -5.609375 37.6875 -3.109375 C 34.207031 -0.617188 30.117188 0.625 25.421875 0.625 Z M 25.421875 0.625 "/></g></g></g><g fill="#000000" fill-opacity="1"><g transform="translate(154.058768, 290.199146)"><g><path d="M 40.203125 0 L 34.875 0 L 30.234375 -11.75 L 11.0625 -11.75 L 6.4375 0 L 1.234375 0 L 18.859375 -43.296875 L 22.578125 -43.296875 Z M 28.390625 -16.390625 L 20.65625 -35.9375 L 12.921875 -16.390625 Z M 28.390625 -16.390625 "/></g></g></g><g fill="#000000" fill-opacity="1"><g transform="translate(195.488621, 290.199146)"><g><path d="M 17.625 0 L 12.671875 0 L 12.671875 -38.65625 L 1.546875 -38.65625 L 1.546875 -43.296875 L 28.75 -43.296875 L 28.75 -38.65625 L 17.625 -38.65625 Z M 17.625 0 "/></g></g></g><g fill="#000000" fill-opacity="1"><g transform="translate(225.788068, 290.199146)"><g><path d="M 17.75 0.625 C 14.78125 0.625 12.203125 0.0664062 10.015625 -1.046875 C 7.828125 -2.160156 6.144531 -3.707031 4.96875 -5.6875 C 3.800781 -7.664062 3.175781 -9.894531 3.09375 -12.375 L 8.046875 -12.375 C 8.117188 -9.9375 9 -7.929688 10.6875 -6.359375 C 12.382812 -4.796875 14.738281 -4.015625 17.75 -4.015625 C 20.425781 -4.015625 22.554688 -4.65625 24.140625 -5.9375 C 25.734375 -7.21875 26.53125 -8.945312 26.53125 -11.125 C 26.53125 -12.820312 26.085938 -14.210938 25.203125 -15.296875 C 24.316406 -16.390625 23.210938 -17.242188 21.890625 -17.859375 C 20.566406 -18.484375 18.796875 -19.148438 16.578125 -19.859375 C 13.859375 -20.804688 11.691406 -21.679688 10.078125 -22.484375 C 8.472656 -23.285156 7.09375 -24.488281 5.9375 -26.09375 C 4.78125 -27.707031 4.203125 -29.832031 4.203125 -32.46875 C 4.203125 -34.613281 4.78125 -36.550781 5.9375 -38.28125 C 7.09375 -40.007812 8.691406 -41.378906 10.734375 -42.390625 C 12.773438 -43.398438 15.070312 -43.90625 17.625 -43.90625 C 20.0625 -43.90625 22.273438 -43.378906 24.265625 -42.328125 C 26.265625 -41.273438 27.863281 -39.820312 29.0625 -37.96875 C 30.257812 -36.113281 30.878906 -34.070312 30.921875 -31.84375 L 25.96875 -31.84375 C 25.882812 -34.03125 25.039062 -35.8125 23.4375 -37.1875 C 21.832031 -38.570312 19.832031 -39.265625 17.4375 -39.265625 C 15.09375 -39.265625 13.15625 -38.6875 11.625 -37.53125 C 10.101562 -36.382812 9.34375 -34.695312 9.34375 -32.46875 C 9.34375 -30.90625 9.765625 -29.609375 10.609375 -28.578125 C 11.453125 -27.546875 12.5 -26.738281 13.75 -26.15625 C 15.007812 -25.582031 16.753906 -24.90625 18.984375 -24.125 C 21.660156 -23.25 23.851562 -22.378906 25.5625 -21.515625 C 27.28125 -20.648438 28.722656 -19.382812 29.890625 -17.71875 C 31.066406 -16.050781 31.65625 -13.851562 31.65625 -11.125 C 31.65625 -8.90625 31.046875 -6.894531 29.828125 -5.09375 C 28.617188 -3.300781 26.960938 -1.898438 24.859375 -0.890625 C 22.753906 0.117188 20.382812 0.625 17.75 0.625 Z M 17.75 0.625 "/></g></g></g><path stroke-linecap="butt" transform="matrix(1.497872, 0, 0, 1.6, 63.569151, 136.590637)" fill="none" stroke-linejoin="miter" d="M 0.000775616 -0.00049555 L 165.240368 -0.00049555 " stroke="#000000" stroke-width="1" stroke-opacity="1" stroke-miterlimit="4"/><path stroke-linecap="butt" transform="matrix(1.501685, 0, 0, 1.6, 65.034089, 230.18105)" fill="none" stroke-linejoin="miter" d="M 0.000710682 -0.000851365 L 90.399146 -0.000851365 " stroke="#000000" stroke-width="1" stroke-opacity="1" stroke-miterlimit="4"/><g fill="#1c2120" fill-opacity="1"><g transform="translate(217.358556, 235.034493)"><g><path d="M 12.824219 -13.96875 C 12.546875 -14.058594 12.445312 -13.78125 12.34375 -13.492188 C 12.34375 -13.476562 12.328125 -13.476562 12.328125 -13.460938 C 9.003906 -1.65625 5.328125 4.167969 3.164062 4.707031 C 2.757812 4.808594 2.425781 4.707031 2.136719 4.398438 C 0.84375 3.007812 0.769531 -2.351562 3.542969 -11.226562 C 3.585938 -11.371094 3.515625 -11.53125 3.355469 -11.574219 C 3.210938 -11.617188 3.0625 -11.546875 3.007812 -11.398438 C 0.507812 -3.398438 0.015625 2.949219 1.726562 4.777344 C 2.148438 5.226562 2.699219 5.386719 3.296875 5.242188 C 4.617188 4.921875 6.144531 3.195312 7.753906 0.230469 C 8.945312 -1.960938 10.121094 -4.777344 11.242188 -8.058594 C 10.195312 -3.472656 8.886719 2.496094 8.625 5.722656 C 8.523438 7.175781 8.828125 8.148438 9.425781 8.277344 C 9.46875 8.292969 9.511719 8.292969 9.554688 8.292969 C 10.035156 8.292969 10.484375 7.726562 10.878906 6.621094 C 10.921875 6.476562 10.847656 6.316406 10.703125 6.257812 C 10.558594 6.214844 10.398438 6.289062 10.355469 6.433594 C 9.949219 7.566406 9.613281 7.753906 9.542969 7.742188 C 9.394531 7.695312 9.089844 7.085938 9.191406 5.765625 C 9.46875 2.179688 11.167969 -5.199219 12.167969 -9.597656 C 12.445312 -10.777344 12.679688 -11.792969 12.824219 -12.503906 C 12.910156 -12.882812 12.96875 -13.15625 12.996094 -13.347656 C 13.042969 -13.605469 13.085938 -13.882812 12.824219 -13.96875 Z M 12.824219 -13.96875 "/></g></g></g><g fill="#1c2120" fill-opacity="1"><g transform="translate(230.07818, 235.034493)"><g><path d="M 5.839844 -3.238281 C 5.707031 -3.3125 5.53125 -3.265625 5.460938 -3.121094 C 5.113281 -2.527344 4.195312 -0.914062 3.675781 -0.972656 C 3.574219 -0.988281 3.28125 -1.132812 2.992188 -2.148438 C 2.789062 -2.859375 2.511719 -3.527344 1.976562 -3.558594 C 1.582031 -3.585938 1.148438 -3.28125 0.480469 -2.03125 C 0.652344 -2.65625 0.84375 -3.28125 0.988281 -3.789062 C 1.046875 -3.980469 1.089844 -4.140625 1.132812 -4.296875 C 1.175781 -4.445312 1.089844 -4.605469 0.945312 -4.648438 C 0.796875 -4.691406 0.640625 -4.605469 0.59375 -4.445312 C 0.550781 -4.296875 0.507812 -4.125 0.449219 -3.949219 C 0.0742188 -2.65625 -0.492188 -0.695312 -0.640625 0.492188 C -0.652344 0.625 -0.566406 0.753906 -0.4375 0.785156 C -0.40625 0.796875 -0.390625 0.796875 -0.363281 0.796875 C -0.246094 0.796875 -0.144531 0.726562 -0.101562 0.625 C 1.261719 -2.773438 1.816406 -3.007812 1.945312 -3.007812 C 1.976562 -3.007812 2.179688 -2.949219 2.453125 -1.988281 C 2.746094 -0.988281 3.121094 -0.480469 3.617188 -0.421875 C 4.355469 -0.335938 5.023438 -1.25 5.941406 -2.847656 C 6.027344 -2.992188 5.96875 -3.152344 5.839844 -3.238281 Z M 5.839844 -3.238281 "/></g></g></g><g fill="#1c2120" fill-opacity="1"><g transform="translate(235.261864, 235.034493)"><g><path d="M 4.242188 -3.296875 C 4.109375 -3.382812 3.949219 -3.339844 3.863281 -3.210938 C 2.890625 -1.640625 1.261719 -0.160156 0.769531 -0.363281 C 0.710938 -0.390625 0.246094 -0.667969 0.886719 -3.121094 C 0.914062 -3.28125 0.828125 -3.425781 0.683594 -3.472656 C 0.523438 -3.5 0.378906 -3.414062 0.335938 -3.265625 C -0.1875 -1.21875 -0.117188 -0.128906 0.539062 0.144531 C 0.640625 0.1875 0.742188 0.203125 0.84375 0.203125 C 1.929688 0.203125 3.601562 -1.742188 4.34375 -2.917969 C 4.414062 -3.050781 4.371094 -3.222656 4.242188 -3.296875 Z M 0.8125 -4.472656 C 1.554688 -4.429688 1.539062 -5.359375 0.945312 -5.15625 C 0.640625 -5.066406 0.246094 -4.5 0.8125 -4.472656 Z M 0.8125 -4.472656 "/></g></g></g><g fill="#1c2120" fill-opacity="1"><g transform="translate(238.93545, 235.034493)"><g><path d="M 5.054688 -3.152344 C 4.921875 -3.210938 4.75 -3.152344 4.691406 -3.007812 C 4.296875 -2.164062 3.425781 0.652344 2.496094 3.617188 C 1.84375 5.679688 1.105469 8.089844 0.582031 9.585938 C 1.015625 6.882812 2.292969 -0.8125 2.714844 -2.933594 C 2.746094 -3.050781 2.671875 -3.179688 2.554688 -3.238281 C 2.441406 -3.296875 2.292969 -3.253906 2.222656 -3.152344 C 2.136719 -3.050781 2.03125 -2.90625 1.929688 -2.757812 C 1.582031 -2.28125 1.105469 -1.613281 0.539062 -1.015625 C 0.320312 -0.785156 0.203125 -0.742188 0.160156 -0.726562 C 0.0585938 -0.886719 0.101562 -1.671875 0.566406 -2.46875 C 0.871094 -3.019531 1.597656 -3.890625 2.804688 -3.574219 C 2.960938 -3.542969 3.109375 -3.628906 3.152344 -3.777344 C 3.179688 -3.933594 3.09375 -4.082031 2.949219 -4.125 C 1.421875 -4.5 0.363281 -3.457031 -0.128906 -2.351562 C -0.480469 -1.539062 -0.59375 -0.550781 -0.128906 -0.246094 C 0.0742188 -0.117188 0.421875 -0.0742188 0.945312 -0.640625 C 1.320312 -1.03125 1.65625 -1.453125 1.945312 -1.828125 C 1.277344 1.828125 -0.0585938 9.992188 -0.117188 10.441406 C -0.1875 10.964844 -0.246094 11.414062 0.101562 11.488281 C 0.128906 11.5 0.144531 11.5 0.175781 11.5 C 0.421875 11.5 0.566406 11.183594 0.753906 10.6875 C 0.914062 10.296875 1.117188 9.730469 1.378906 8.960938 C 1.859375 7.535156 2.453125 5.632812 3.019531 3.789062 C 3.90625 0.957031 4.820312 -1.960938 5.199219 -2.773438 C 5.257812 -2.917969 5.199219 -3.078125 5.054688 -3.152344 Z M 5.054688 -3.152344 "/></g></g></g><g fill="#1c2120" fill-opacity="1"><g transform="translate(243.509285, 235.034493)"><g><path d="M 5.78125 -3.136719 C 5.648438 -3.210938 5.476562 -3.164062 5.402344 -3.035156 C 4.023438 -0.828125 2.859375 0.160156 2.613281 0.0742188 C 2.613281 0.0742188 2.324219 -0.0859375 2.597656 -1.757812 C 2.699219 -2.324219 2.746094 -2.644531 2.46875 -2.757812 C 2.207031 -2.859375 2.046875 -2.644531 1.742188 -2.207031 C 1.496094 -1.859375 1.160156 -1.394531 0.796875 -1.074219 C 0.753906 -1.046875 0.59375 -0.898438 0.523438 -0.957031 C 0.304688 -1.132812 0.261719 -2.078125 0.769531 -2.949219 C 0.855469 -3.078125 0.796875 -3.253906 0.667969 -3.339844 C 0.539062 -3.414062 0.363281 -3.371094 0.289062 -3.238281 C -0.289062 -2.222656 -0.347656 -0.957031 0.160156 -0.539062 C 0.289062 -0.421875 0.652344 -0.21875 1.160156 -0.640625 C 1.496094 -0.929688 1.785156 -1.308594 2.019531 -1.625 C 1.816406 -0.277344 1.929688 0.40625 2.410156 0.59375 C 2.484375 0.625 2.554688 0.625 2.613281 0.625 C 3.71875 0.625 5.503906 -2.164062 5.867188 -2.746094 C 5.953125 -2.875 5.910156 -3.050781 5.78125 -3.136719 Z M 5.78125 -3.136719 "/></g></g></g><g fill="#1c2120" fill-opacity="1"><g transform="translate(248.707482, 235.034493)"><g><path d="M 4.910156 -3.238281 C 4.777344 -3.324219 4.605469 -3.296875 4.515625 -3.164062 C 3.425781 -1.640625 2.542969 -0.683594 1.671875 -0.0585938 C 1.234375 0.246094 0.8125 0.304688 0.539062 0.101562 C 0.363281 -0.0273438 -0.175781 -0.609375 0.449219 -2.644531 C 1.859375 -3.804688 2.628906 -4.910156 2.425781 -5.488281 C 2.351562 -5.664062 2.179688 -5.78125 1.988281 -5.78125 C 1.410156 -5.765625 0.523438 -4.761719 -0.0585938 -2.890625 C -0.769531 -0.582031 -0.1875 0.261719 0.21875 0.550781 C 0.421875 0.710938 0.652344 0.785156 0.914062 0.785156 C 1.25 0.785156 1.625 0.652344 1.988281 0.390625 C 2.917969 -0.277344 3.832031 -1.261719 4.964844 -2.847656 C 5.054688 -2.976562 5.023438 -3.152344 4.910156 -3.238281 Z M 1.875 -5.171875 C 1.816406 -4.9375 1.570312 -4.472656 0.886719 -3.777344 C 1.261719 -4.617188 1.671875 -5.023438 1.875 -5.171875 Z M 1.875 -5.171875 "/></g></g></g><g fill="#1c2120" fill-opacity="1"><g transform="translate(252.93284, 235.034493)"><g/></g></g><g fill="#1c2120" fill-opacity="1"><g transform="translate(257.390519, 235.034493)"><g><path d="M 11.792969 -3.382812 C 11.648438 -3.441406 11.488281 -3.382812 11.429688 -3.238281 C 9.773438 0.277344 8.175781 2.859375 6.664062 4.445312 C 5.386719 5.78125 4.242188 6.332031 3.324219 6.054688 C 2.496094 5.792969 1.859375 4.820312 1.539062 3.3125 C 1.175781 1.683594 1.191406 -0.40625 1.570312 -2.730469 C 2.105469 -6.042969 3.660156 -10.730469 5.476562 -12.910156 C 6.011719 -13.550781 6.476562 -13.855469 6.753906 -13.710938 C 7.433594 -13.375 7.710938 -10.601562 6.214844 -3.878906 C 6.171875 -3.730469 6.273438 -3.585938 6.417969 -3.542969 C 6.578125 -3.515625 6.722656 -3.617188 6.753906 -3.761719 C 7.726562 -8.101562 8.554688 -13.449219 7 -14.21875 C 6.621094 -14.40625 5.984375 -14.390625 5.054688 -13.273438 C 3.890625 -11.878906 3.007812 -9.800781 2.46875 -8.292969 C 1.816406 -6.507812 1.292969 -4.5 1.015625 -2.816406 C 0.203125 2.164062 1.074219 5.941406 3.164062 6.59375 C 3.371094 6.652344 3.585938 6.679688 3.804688 6.679688 C 6.097656 6.679688 9.019531 3.222656 11.921875 -3.007812 C 11.996094 -3.152344 11.9375 -3.3125 11.792969 -3.382812 Z M 11.792969 -3.382812 "/></g></g></g><g fill="#1c2120" fill-opacity="1"><g transform="translate(268.600046, 235.034493)"><g><path d="M 5.257812 -3.152344 C 5.125 -3.253906 4.953125 -3.222656 4.863281 -3.109375 C 4.253906 -2.324219 3.253906 -1.671875 2.484375 -1.816406 C 2.496094 -1.917969 2.511719 -2.019531 2.511719 -2.121094 C 2.613281 -3.761719 2.105469 -4.09375 1.800781 -4.152344 C 1.453125 -4.226562 1.089844 -3.964844 0.914062 -3.527344 C 0.84375 -3.558594 0.753906 -3.558594 0.683594 -3.5 C 0.101562 -3.136719 -0.378906 -2.207031 -0.117188 -1.207031 C 0.0585938 -0.609375 0.464844 -0.230469 1.003906 -0.230469 C 1.511719 -0.230469 2.046875 -0.609375 2.324219 -1.277344 C 3.339844 -1.058594 4.558594 -1.816406 5.300781 -2.757812 C 5.402344 -2.890625 5.375 -3.0625 5.257812 -3.152344 Z M 1.015625 -0.785156 C 1.003906 -0.785156 1.003906 -0.785156 1.003906 -0.785156 C 0.640625 -0.796875 0.480469 -1.148438 0.4375 -1.351562 C 0.289062 -1.84375 0.40625 -2.527344 0.8125 -2.90625 C 0.84375 -2.410156 1.117188 -1.875 1.816406 -1.496094 C 1.613281 -1.03125 1.261719 -0.785156 1.015625 -0.785156 Z M 1.960938 -2.148438 C 1.945312 -2.121094 1.945312 -2.089844 1.945312 -2.0625 C 1.394531 -2.425781 1.308594 -2.890625 1.410156 -3.253906 C 1.480469 -3.484375 1.625 -3.601562 1.699219 -3.601562 C 1.773438 -3.585938 2.019531 -3.3125 1.960938 -2.148438 Z M 1.960938 -2.148438 "/></g></g></g><g fill="#1c2120" fill-opacity="1"><g transform="translate(273.246483, 235.034493)"><g><path d="M 4.269531 -13.605469 C 4.167969 -13.738281 4.023438 -13.796875 3.878906 -13.78125 C 3.050781 -13.636719 2.164062 -10.542969 1.917969 -9.597656 C 1.191406 -6.824219 0.277344 -2.890625 -0.464844 0.640625 C -0.8125 2.308594 -1.089844 3.71875 -1.261719 4.734375 C -1.554688 6.449219 -1.511719 6.664062 -1.234375 6.738281 C -1.207031 6.753906 -1.175781 6.753906 -1.148438 6.753906 C -0.886719 6.753906 -0.753906 6.40625 -0.625 6.027344 C -0.582031 5.882812 -0.652344 5.722656 -0.796875 5.679688 C -0.8125 5.664062 -0.828125 5.664062 -0.84375 5.664062 C -0.539062 3.574219 0.710938 -2.511719 1.988281 -7.609375 C 1.988281 -7.625 2.003906 -7.640625 2.019531 -7.652344 C 3.90625 -10.644531 4.648438 -13.027344 4.269531 -13.605469 Z M 2.484375 -9.570312 C 3.035156 -11.617188 3.527344 -12.605469 3.789062 -13.011719 C 3.730469 -12.476562 3.414062 -11.3125 2.484375 -9.570312 Z M 2.484375 -9.570312 "/></g></g></g><g fill="#1c2120" fill-opacity="1"><g transform="translate(275.453546, 235.034493)"><g><path d="M 4.269531 -13.605469 C 4.167969 -13.738281 4.023438 -13.796875 3.878906 -13.78125 C 3.050781 -13.636719 2.164062 -10.542969 1.917969 -9.597656 C 1.191406 -6.824219 0.277344 -2.890625 -0.464844 0.640625 C -0.8125 2.308594 -1.089844 3.71875 -1.261719 4.734375 C -1.554688 6.449219 -1.511719 6.664062 -1.234375 6.738281 C -1.207031 6.753906 -1.175781 6.753906 -1.148438 6.753906 C -0.886719 6.753906 -0.753906 6.40625 -0.625 6.027344 C -0.582031 5.882812 -0.652344 5.722656 -0.796875 5.679688 C -0.8125 5.664062 -0.828125 5.664062 -0.84375 5.664062 C -0.539062 3.574219 0.710938 -2.511719 1.988281 -7.609375 C 1.988281 -7.625 2.003906 -7.640625 2.019531 -7.652344 C 3.90625 -10.644531 4.648438 -13.027344 4.269531 -13.605469 Z M 2.484375 -9.570312 C 3.035156 -11.617188 3.527344 -12.605469 3.789062 -13.011719 C 3.730469 -12.476562 3.414062 -11.3125 2.484375 -9.570312 Z M 2.484375 -9.570312 "/></g></g></g><g fill="#1c2120" fill-opacity="1"><g transform="translate(277.660609, 235.034493)"><g><path d="M 4.910156 -3.238281 C 4.777344 -3.324219 4.605469 -3.296875 4.515625 -3.164062 C 3.425781 -1.640625 2.542969 -0.683594 1.671875 -0.0585938 C 1.234375 0.246094 0.8125 0.304688 0.539062 0.101562 C 0.363281 -0.0273438 -0.175781 -0.609375 0.449219 -2.644531 C 1.859375 -3.804688 2.628906 -4.910156 2.425781 -5.488281 C 2.351562 -5.664062 2.179688 -5.78125 1.988281 -5.78125 C 1.410156 -5.765625 0.523438 -4.761719 -0.0585938 -2.890625 C -0.769531 -0.582031 -0.1875 0.261719 0.21875 0.550781 C 0.421875 0.710938 0.652344 0.785156 0.914062 0.785156 C 1.25 0.785156 1.625 0.652344 1.988281 0.390625 C 2.917969 -0.277344 3.832031 -1.261719 4.964844 -2.847656 C 5.054688 -2.976562 5.023438 -3.152344 4.910156 -3.238281 Z M 1.875 -5.171875 C 1.816406 -4.9375 1.570312 -4.472656 0.886719 -3.777344 C 1.261719 -4.617188 1.671875 -5.023438 1.875 -5.171875 Z M 1.875 -5.171875 "/></g></g></g><g fill="#1c2120" fill-opacity="1"><g transform="translate(281.885966, 235.034493)"><g><path d="M 4.792969 -3.296875 C 4.660156 -3.371094 4.488281 -3.339844 4.414062 -3.210938 C 3.425781 -1.714844 1.785156 0.785156 0.710938 0.550781 C 0.539062 0.507812 0.390625 0.390625 0.289062 0.203125 C 0 -0.320312 0.0429688 -1.363281 0.378906 -2.28125 C 0.742188 -3.253906 1.175781 -3.5 1.261719 -3.484375 C 1.277344 -3.472656 1.363281 -3.28125 1.25 -2.832031 C 1.207031 -2.671875 1.292969 -2.527344 1.4375 -2.484375 C 1.597656 -2.453125 1.742188 -2.542969 1.785156 -2.6875 C 2.0625 -3.730469 1.582031 -3.964844 1.4375 -4.023438 C 0.898438 -4.183594 0.246094 -3.542969 -0.144531 -2.46875 C -0.480469 -1.570312 -0.625 -0.289062 -0.1875 0.480469 C -0.015625 0.8125 0.261719 1.015625 0.59375 1.089844 C 0.683594 1.117188 0.769531 1.117188 0.855469 1.117188 C 2.121094 1.117188 3.484375 -0.785156 4.878906 -2.90625 C 4.964844 -3.035156 4.921875 -3.210938 4.792969 -3.296875 Z M 4.792969 -3.296875 "/></g></g></g><g fill="#1c2120" fill-opacity="1"><g transform="translate(286.183926, 235.034493)"><g><path d="M 12.257812 -8.566406 C 12.066406 -8.828125 11.226562 -8.988281 2.207031 -8.785156 C 2.496094 -9.960938 2.757812 -11.023438 2.992188 -11.878906 C 3.035156 -12.039062 2.949219 -12.183594 2.804688 -12.226562 C 2.65625 -12.269531 2.496094 -12.183594 2.453125 -12.039062 C 2.207031 -11.125 1.929688 -10.019531 1.625 -8.769531 C 0.828125 -8.757812 -0.0429688 -8.742188 -0.988281 -8.714844 C -2.28125 -8.683594 -3.296875 -8.65625 -3.6875 -8.65625 C -3.847656 -8.65625 -3.980469 -8.523438 -3.980469 -8.378906 C -3.980469 -8.21875 -3.847656 -8.089844 -3.6875 -8.089844 C -3.28125 -8.101562 -2.265625 -8.117188 -0.972656 -8.160156 C -0.289062 -8.175781 0.550781 -8.191406 1.496094 -8.21875 C 0.871094 -5.578125 0.160156 -2.410156 -0.480469 0.683594 C -0.945312 2.949219 -1.320312 4.910156 -1.570312 6.347656 C -1.699219 7.101562 -1.785156 7.695312 -1.828125 8.101562 C -1.886719 8.65625 -1.917969 8.976562 -1.640625 9.078125 C -1.597656 9.078125 -1.570312 9.089844 -1.523438 9.089844 C -1.277344 9.089844 -1.148438 8.742188 -1.03125 8.421875 C -0.972656 8.277344 -1.046875 8.117188 -1.191406 8.058594 C -1.21875 8.058594 -1.234375 8.046875 -1.261719 8.046875 C -1.117188 6.914062 -0.683594 4.371094 0.160156 0.363281 C 0.785156 -2.671875 1.464844 -5.707031 2.078125 -8.234375 C 6.070312 -8.320312 11.253906 -8.394531 11.851562 -8.191406 C 11.953125 -8.101562 12.082031 -8.101562 12.199219 -8.175781 C 12.316406 -8.261719 12.34375 -8.4375 12.257812 -8.566406 Z M 12.257812 -8.566406 "/></g></g></g><g fill="#1c2120" fill-opacity="1"><g transform="translate(288.115103, 235.034493)"><g><path d="M 4.242188 -3.296875 C 4.109375 -3.382812 3.949219 -3.339844 3.863281 -3.210938 C 2.890625 -1.640625 1.261719 -0.160156 0.769531 -0.363281 C 0.710938 -0.390625 0.246094 -0.667969 0.886719 -3.121094 C 0.914062 -3.28125 0.828125 -3.425781 0.683594 -3.472656 C 0.523438 -3.5 0.378906 -3.414062 0.335938 -3.265625 C -0.1875 -1.21875 -0.117188 -0.128906 0.539062 0.144531 C 0.640625 0.1875 0.742188 0.203125 0.84375 0.203125 C 1.929688 0.203125 3.601562 -1.742188 4.34375 -2.917969 C 4.414062 -3.050781 4.371094 -3.222656 4.242188 -3.296875 Z M 0.8125 -4.472656 C 1.554688 -4.429688 1.539062 -5.359375 0.945312 -5.15625 C 0.640625 -5.066406 0.246094 -4.5 0.8125 -4.472656 Z M 0.8125 -4.472656 "/></g></g></g><g fill="#1c2120" fill-opacity="1"><g transform="translate(291.78869, 235.034493)"><g><path d="M 5.257812 -3.152344 C 5.125 -3.253906 4.953125 -3.222656 4.863281 -3.109375 C 4.253906 -2.324219 3.253906 -1.671875 2.484375 -1.816406 C 2.496094 -1.917969 2.511719 -2.019531 2.511719 -2.121094 C 2.613281 -3.761719 2.105469 -4.09375 1.800781 -4.152344 C 1.453125 -4.226562 1.089844 -3.964844 0.914062 -3.527344 C 0.84375 -3.558594 0.753906 -3.558594 0.683594 -3.5 C 0.101562 -3.136719 -0.378906 -2.207031 -0.117188 -1.207031 C 0.0585938 -0.609375 0.464844 -0.230469 1.003906 -0.230469 C 1.511719 -0.230469 2.046875 -0.609375 2.324219 -1.277344 C 3.339844 -1.058594 4.558594 -1.816406 5.300781 -2.757812 C 5.402344 -2.890625 5.375 -3.0625 5.257812 -3.152344 Z M 1.015625 -0.785156 C 1.003906 -0.785156 1.003906 -0.785156 1.003906 -0.785156 C 0.640625 -0.796875 0.480469 -1.148438 0.4375 -1.351562 C 0.289062 -1.84375 0.40625 -2.527344 0.8125 -2.90625 C 0.84375 -2.410156 1.117188 -1.875 1.816406 -1.496094 C 1.613281 -1.03125 1.261719 -0.785156 1.015625 -0.785156 Z M 1.960938 -2.148438 C 1.945312 -2.121094 1.945312 -2.089844 1.945312 -2.0625 C 1.394531 -2.425781 1.308594 -2.890625 1.410156 -3.253906 C 1.480469 -3.484375 1.625 -3.601562 1.699219 -3.601562 C 1.773438 -3.585938 2.019531 -3.3125 1.960938 -2.148438 Z M 1.960938 -2.148438 "/></g></g></g><g fill="#1c2120" fill-opacity="1"><g transform="translate(296.435127, 235.034493)"><g><path d="M 5.839844 -3.238281 C 5.707031 -3.3125 5.53125 -3.265625 5.460938 -3.121094 C 5.113281 -2.527344 4.195312 -0.914062 3.675781 -0.972656 C 3.574219 -0.988281 3.28125 -1.132812 2.992188 -2.148438 C 2.789062 -2.859375 2.511719 -3.527344 1.976562 -3.558594 C 1.582031 -3.585938 1.148438 -3.28125 0.480469 -2.03125 C 0.652344 -2.65625 0.84375 -3.28125 0.988281 -3.789062 C 1.046875 -3.980469 1.089844 -4.140625 1.132812 -4.296875 C 1.175781 -4.445312 1.089844 -4.605469 0.945312 -4.648438 C 0.796875 -4.691406 0.640625 -4.605469 0.59375 -4.445312 C 0.550781 -4.296875 0.507812 -4.125 0.449219 -3.949219 C 0.0742188 -2.65625 -0.492188 -0.695312 -0.640625 0.492188 C -0.652344 0.625 -0.566406 0.753906 -0.4375 0.785156 C -0.40625 0.796875 -0.390625 0.796875 -0.363281 0.796875 C -0.246094 0.796875 -0.144531 0.726562 -0.101562 0.625 C 1.261719 -2.773438 1.816406 -3.007812 1.945312 -3.007812 C 1.976562 -3.007812 2.179688 -2.949219 2.453125 -1.988281 C 2.746094 -0.988281 3.121094 -0.480469 3.617188 -0.421875 C 4.355469 -0.335938 5.023438 -1.25 5.941406 -2.847656 C 6.027344 -2.992188 5.96875 -3.152344 5.839844 -3.238281 Z M 5.839844 -3.238281 "/></g></g></g><g fill="#1c2120" fill-opacity="1"><g transform="translate(301.61881, 235.034493)"><g><path d="M 6.460938 -3.324219 C 6.347656 -3.425781 6.171875 -3.414062 6.070312 -3.296875 C 4.921875 -1.976562 3.121094 0.128906 2.832031 0.507812 C 2.746094 0.609375 2.65625 0.726562 2.570312 0.84375 C 2.453125 0.550781 2.308594 0.277344 2.121094 -0.015625 C 1.421875 -1.089844 0.796875 -2.105469 0.828125 -2.816406 C 0.855469 -3.382812 1.148438 -3.878906 1.625 -4.167969 C 2.019531 -4.398438 2.453125 -4.445312 2.789062 -4.285156 C 2.917969 -4.226562 3.09375 -4.285156 3.152344 -4.429688 C 3.222656 -4.558594 3.164062 -4.734375 3.019531 -4.792969 C 2.527344 -5.023438 1.886719 -4.964844 1.335938 -4.648438 C 0.695312 -4.253906 0.320312 -3.601562 0.277344 -2.847656 C 0.230469 -1.960938 0.871094 -0.898438 1.65625 0.289062 C 1.902344 0.667969 2.0625 1.03125 2.164062 1.378906 C 1.03125 2.917969 -0.1875 4.894531 0.4375 5.503906 C 0.539062 5.605469 0.667969 5.648438 0.796875 5.648438 C 1.03125 5.648438 1.292969 5.53125 1.570312 5.316406 C 2.351562 4.660156 3.164062 3.179688 2.773438 1.496094 C 2.933594 1.292969 3.09375 1.074219 3.265625 0.855469 C 3.558594 0.492188 5.359375 -1.613281 6.492188 -2.933594 C 6.59375 -3.050781 6.578125 -3.222656 6.460938 -3.324219 Z M 1.742188 4.269531 C 1.351562 4.851562 0.957031 5.082031 0.828125 5.097656 C 0.769531 4.894531 0.957031 4.050781 2.308594 2.136719 C 2.367188 3.179688 1.929688 3.980469 1.742188 4.269531 Z M 1.742188 4.269531 "/></g></g></g><path stroke-linecap="butt" transform="matrix(0.000000000000000092, -1.50263, 1.6, 0.000000000000000098, 64.396253, 230.788607)" fill="none" stroke-linejoin="miter" d="M -0.000302972 -0.00107614 L 62.392924 -0.00107614 " stroke="#000000" stroke-width="1" stroke-opacity="1" stroke-miterlimit="4"/><path stroke-linecap="butt" transform="matrix(0.000000000000000092, -1.505824, 1.6, 0.000000000000000098, 312.232659, 211.220041)" fill="none" stroke-linejoin="miter" d="M 0.000857026 0.00107238 L 50.308138 0.00107238 " stroke="#000000" stroke-width="1" stroke-opacity="1" stroke-miterlimit="4"/></svg>