<svg xmlns="http://www.w3.org/2000/svg" xmlns:xlink="http://www.w3.org/1999/xlink" width="500" zoomAndPan="magnify" viewBox="0 0 375 374.999991" height="500" preserveAspectRatio="xMidYMid meet" version="1.0"><defs><g/></defs><g fill="#38b6ff" fill-opacity="1"><g transform="translate(142.267888, 162.910416)"><g><path d="M 16.265625 0.390625 C 13.710938 0.390625 11.351562 -0.238281 9.1875 -1.5 C 7.019531 -2.769531 5.304688 -4.5 4.046875 -6.6875 C 2.796875 -8.882812 2.171875 -11.273438 2.171875 -13.859375 C 2.171875 -16.441406 2.796875 -18.828125 4.046875 -21.015625 C 5.304688 -23.210938 7.019531 -24.941406 9.1875 -26.203125 C 11.351562 -27.472656 13.710938 -28.109375 16.265625 -28.109375 C 19.203125 -28.109375 21.773438 -27.3125 23.984375 -25.71875 C 26.203125 -24.125 27.867188 -21.953125 28.984375 -19.203125 L 25.609375 -19.203125 C 24.691406 -21.023438 23.421875 -22.46875 21.796875 -23.53125 C 20.171875 -24.601562 18.328125 -25.140625 16.265625 -25.140625 C 14.316406 -25.140625 12.507812 -24.640625 10.84375 -23.640625 C 9.1875 -22.640625 7.875 -21.28125 6.90625 -19.5625 C 5.945312 -17.84375 5.46875 -15.941406 5.46875 -13.859375 C 5.46875 -11.773438 5.945312 -9.875 6.90625 -8.15625 C 7.875 -6.4375 9.1875 -5.078125 10.84375 -4.078125 C 12.507812 -3.078125 14.316406 -2.578125 16.265625 -2.578125 C 18.410156 -2.578125 20.300781 -3.109375 21.9375 -4.171875 C 23.570312 -5.242188 24.851562 -6.691406 25.78125 -8.515625 L 29.140625 -8.515625 C 28.035156 -5.765625 26.363281 -3.59375 24.125 -2 C 21.894531 -0.40625 19.273438 0.390625 16.265625 0.390625 Z M 16.265625 0.390625 "/></g></g></g><g fill="#38b6ff" fill-opacity="1"><g transform="translate(172.987394, 162.910416)"><g><path d="M 16.46875 0.390625 C 13.851562 0.390625 11.453125 -0.238281 9.265625 -1.5 C 7.078125 -2.769531 5.347656 -4.5 4.078125 -6.6875 C 2.804688 -8.882812 2.171875 -11.273438 2.171875 -13.859375 C 2.171875 -16.441406 2.804688 -18.828125 4.078125 -21.015625 C 5.347656 -23.210938 7.078125 -24.941406 9.265625 -26.203125 C 11.453125 -27.472656 13.851562 -28.109375 16.46875 -28.109375 C 19.082031 -28.109375 21.484375 -27.472656 23.671875 -26.203125 C 25.867188 -24.941406 27.597656 -23.210938 28.859375 -21.015625 C 30.128906 -18.828125 30.765625 -16.441406 30.765625 -13.859375 C 30.765625 -11.273438 30.128906 -8.882812 28.859375 -6.6875 C 27.597656 -4.5 25.867188 -2.769531 23.671875 -1.5 C 21.484375 -0.238281 19.082031 0.390625 16.46875 0.390625 Z M 16.46875 -2.578125 C 18.476562 -2.578125 20.320312 -3.078125 22 -4.078125 C 23.675781 -5.078125 25.007812 -6.4375 26 -8.15625 C 26.988281 -9.875 27.484375 -11.773438 27.484375 -13.859375 C 27.484375 -15.941406 26.988281 -17.84375 26 -19.5625 C 25.007812 -21.28125 23.675781 -22.640625 22 -23.640625 C 20.320312 -24.640625 18.476562 -25.140625 16.46875 -25.140625 C 14.46875 -25.140625 12.628906 -24.640625 10.953125 -23.640625 C 9.273438 -22.640625 7.941406 -21.28125 6.953125 -19.5625 C 5.960938 -17.84375 5.46875 -15.941406 5.46875 -13.859375 C 5.46875 -11.773438 5.960938 -9.875 6.953125 -8.15625 C 7.941406 -6.4375 9.273438 -5.078125 10.953125 -4.078125 C 12.628906 -3.078125 14.46875 -2.578125 16.46875 -2.578125 Z M 16.46875 -2.578125 "/></g></g></g><g fill="#38b6ff" fill-opacity="1"><g transform="translate(205.923769, 162.910416)"><g><path d="M 16.46875 0.390625 C 13.851562 0.390625 11.453125 -0.238281 9.265625 -1.5 C 7.078125 -2.769531 5.347656 -4.5 4.078125 -6.6875 C 2.804688 -8.882812 2.171875 -11.273438 2.171875 -13.859375 C 2.171875 -16.441406 2.804688 -18.828125 4.078125 -21.015625 C 5.347656 -23.210938 7.078125 -24.941406 9.265625 -26.203125 C 11.453125 -27.472656 13.851562 -28.109375 16.46875 -28.109375 C 19.082031 -28.109375 21.484375 -27.472656 23.671875 -26.203125 C 25.867188 -24.941406 27.597656 -23.210938 28.859375 -21.015625 C 30.128906 -18.828125 30.765625 -16.441406 30.765625 -13.859375 C 30.765625 -11.273438 30.128906 -8.882812 28.859375 -6.6875 C 27.597656 -4.5 25.867188 -2.769531 23.671875 -1.5 C 21.484375 -0.238281 19.082031 0.390625 16.46875 0.390625 Z M 16.46875 -2.578125 C 18.476562 -2.578125 20.320312 -3.078125 22 -4.078125 C 23.675781 -5.078125 25.007812 -6.4375 26 -8.15625 C 26.988281 -9.875 27.484375 -11.773438 27.484375 -13.859375 C 27.484375 -15.941406 26.988281 -17.84375 26 -19.5625 C 25.007812 -21.28125 23.675781 -22.640625 22 -23.640625 C 20.320312 -24.640625 18.476562 -25.140625 16.46875 -25.140625 C 14.46875 -25.140625 12.628906 -24.640625 10.953125 -23.640625 C 9.273438 -22.640625 7.941406 -21.28125 6.953125 -19.5625 C 5.960938 -17.84375 5.46875 -15.941406 5.46875 -13.859375 C 5.46875 -11.773438 5.960938 -9.875 6.953125 -8.15625 C 7.941406 -6.4375 9.273438 -5.078125 10.953125 -4.078125 C 12.628906 -3.078125 14.46875 -2.578125 16.46875 -2.578125 Z M 16.46875 -2.578125 "/></g></g></g><g fill="#38b6ff" fill-opacity="1"><g transform="translate(238.860143, 162.910416)"><g><path d="M 17.625 0 L 3.765625 0 L 3.765625 -27.71875 L 6.921875 -27.71875 L 6.921875 -2.96875 L 17.625 -2.96875 Z M 17.625 0 "/></g></g></g><g fill="#38b6ff" fill-opacity="1"><g transform="translate(257.85771, 162.910416)"><g/></g></g><g fill="#38b6ff" fill-opacity="1"><g transform="translate(150.619718, 218.039982)"><g><path d="M 16.265625 0.390625 C 13.710938 0.390625 11.351562 -0.238281 9.1875 -1.5 C 7.019531 -2.769531 5.304688 -4.5 4.046875 -6.6875 C 2.796875 -8.882812 2.171875 -11.273438 2.171875 -13.859375 C 2.171875 -16.441406 2.796875 -18.828125 4.046875 -21.015625 C 5.304688 -23.210938 7.019531 -24.941406 9.1875 -26.203125 C 11.351562 -27.472656 13.710938 -28.109375 16.265625 -28.109375 C 19.203125 -28.109375 21.773438 -27.3125 23.984375 -25.71875 C 26.203125 -24.125 27.867188 -21.953125 28.984375 -19.203125 L 25.609375 -19.203125 C 24.691406 -21.023438 23.421875 -22.46875 21.796875 -23.53125 C 20.171875 -24.601562 18.328125 -25.140625 16.265625 -25.140625 C 14.316406 -25.140625 12.507812 -24.640625 10.84375 -23.640625 C 9.1875 -22.640625 7.875 -21.28125 6.90625 -19.5625 C 5.945312 -17.84375 5.46875 -15.941406 5.46875 -13.859375 C 5.46875 -11.773438 5.945312 -9.875 6.90625 -8.15625 C 7.875 -6.4375 9.1875 -5.078125 10.84375 -4.078125 C 12.507812 -3.078125 14.316406 -2.578125 16.265625 -2.578125 C 18.410156 -2.578125 20.300781 -3.109375 21.9375 -4.171875 C 23.570312 -5.242188 24.851562 -6.691406 25.78125 -8.515625 L 29.140625 -8.515625 C 28.035156 -5.765625 26.363281 -3.59375 24.125 -2 C 21.894531 -0.40625 19.273438 0.390625 16.265625 0.390625 Z M 16.265625 0.390625 "/></g></g></g><g fill="#38b6ff" fill-opacity="1"><g transform="translate(181.339224, 218.039982)"><g><path d="M 25.734375 0 L 22.328125 0 L 19.359375 -7.515625 L 7.09375 -7.515625 L 4.125 0 L 0.796875 0 L 12.078125 -27.71875 L 14.453125 -27.71875 Z M 18.171875 -10.5 L 13.21875 -23 L 8.28125 -10.5 Z M 18.171875 -10.5 "/></g></g></g><g fill="#38b6ff" fill-opacity="1"><g transform="translate(207.862503, 218.039982)"><g><path d="M 11.28125 0 L 8.109375 0 L 8.109375 -24.75 L 0.984375 -24.75 L 0.984375 -27.71875 L 18.40625 -27.71875 L 18.40625 -24.75 L 11.28125 -24.75 Z M 11.28125 0 "/></g></g></g><g fill="#38b6ff" fill-opacity="1"><g transform="translate(227.260132, 218.039982)"><g><path d="M 11.359375 0.390625 C 9.460938 0.390625 7.8125 0.0351562 6.40625 -0.671875 C 5.007812 -1.378906 3.9375 -2.367188 3.1875 -3.640625 C 2.4375 -4.910156 2.035156 -6.335938 1.984375 -7.921875 L 5.140625 -7.921875 C 5.191406 -6.359375 5.757812 -5.078125 6.84375 -4.078125 C 7.925781 -3.078125 9.429688 -2.578125 11.359375 -2.578125 C 13.078125 -2.578125 14.441406 -2.984375 15.453125 -3.796875 C 16.472656 -4.617188 16.984375 -5.726562 16.984375 -7.125 C 16.984375 -8.207031 16.695312 -9.097656 16.125 -9.796875 C 15.5625 -10.492188 14.859375 -11.039062 14.015625 -11.4375 C 13.171875 -11.832031 12.035156 -12.253906 10.609375 -12.703125 C 8.867188 -13.316406 7.484375 -13.878906 6.453125 -14.390625 C 5.421875 -14.910156 4.535156 -15.679688 3.796875 -16.703125 C 3.054688 -17.734375 2.6875 -19.09375 2.6875 -20.78125 C 2.6875 -22.15625 3.054688 -23.394531 3.796875 -24.5 C 4.535156 -25.613281 5.554688 -26.492188 6.859375 -27.140625 C 8.171875 -27.785156 9.644531 -28.109375 11.28125 -28.109375 C 12.84375 -28.109375 14.257812 -27.769531 15.53125 -27.09375 C 16.8125 -26.425781 17.832031 -25.5 18.59375 -24.3125 C 19.363281 -23.125 19.765625 -21.816406 19.796875 -20.390625 L 16.625 -20.390625 C 16.570312 -21.785156 16.03125 -22.925781 15 -23.8125 C 13.976562 -24.695312 12.703125 -25.140625 11.171875 -25.140625 C 9.660156 -25.140625 8.414062 -24.769531 7.4375 -24.03125 C 6.46875 -23.289062 5.984375 -22.207031 5.984375 -20.78125 C 5.984375 -19.78125 6.253906 -18.945312 6.796875 -18.28125 C 7.335938 -17.625 8.007812 -17.109375 8.8125 -16.734375 C 9.613281 -16.367188 10.726562 -15.9375 12.15625 -15.4375 C 13.875 -14.882812 15.28125 -14.332031 16.375 -13.78125 C 17.46875 -13.226562 18.390625 -12.414062 19.140625 -11.34375 C 19.890625 -10.269531 20.265625 -8.863281 20.265625 -7.125 C 20.265625 -5.695312 19.875 -4.410156 19.09375 -3.265625 C 18.320312 -2.117188 17.257812 -1.222656 15.90625 -0.578125 C 14.5625 0.0664062 13.046875 0.390625 11.359375 0.390625 Z M 11.359375 0.390625 "/></g></g></g><path stroke-linecap="butt" transform="matrix(0.958995, 0, 0, 1.024381, 123.407809, 118.364347)" fill="none" stroke-linejoin="miter" d="M -0.00162587 -0.00104002 L 165.243064 -0.00104002 " stroke="#000000" stroke-width="1" stroke-opacity="1" stroke-miterlimit="4"/><path stroke-linecap="butt" transform="matrix(0.961436, 0, 0, 1.024381, 124.34572, 178.284466)" fill="none" stroke-linejoin="miter" d="M 0.0020144 0.000673927 L 90.398237 0.000673927 " stroke="#000000" stroke-width="1" stroke-opacity="1" stroke-miterlimit="4"/><path stroke-linecap="butt" transform="matrix(0.798979, 0, 0, 0.798979, 195.458195, 172.186498)" fill="none" stroke-linejoin="miter" d="M 32.984969 -0.072082 C 32.72585 -0.155196 32.628069 0.103924 32.535177 0.377711 C 32.535177 0.387489 32.52051 0.387489 32.52051 0.402156 C 29.411073 11.451411 25.969182 16.902702 23.945114 17.401386 C 23.563769 17.499167 23.255758 17.401386 22.981971 17.117821 C 21.774376 15.812444 21.705929 10.796278 24.297126 2.49467 C 24.341128 2.357776 24.272681 2.211105 24.12112 2.167103 C 23.989116 2.127991 23.852223 2.196438 23.798443 2.333331 C 21.456588 9.823357 20.997017 15.758664 22.600626 17.474721 C 22.996639 17.89518 23.514878 18.041851 24.07223 17.904958 C 25.30916 17.606726 26.731873 15.98845 28.24259 13.221247 C 29.357294 11.162957 30.45733 8.527758 31.503587 5.457434 C 30.520888 9.750021 29.303514 15.338206 29.059062 18.35475 C 28.961281 19.713907 29.244846 20.62327 29.802197 20.745496 C 29.846199 20.760163 29.885311 20.760163 29.924424 20.760163 C 30.374216 20.760163 30.794675 20.227257 31.161353 19.195667 C 31.205355 19.063663 31.136908 18.912102 31.000015 18.858323 C 30.863121 18.814321 30.71645 18.887657 30.672448 19.019661 C 30.295991 20.080585 29.983092 20.256591 29.914646 20.241924 C 29.777752 20.202812 29.489298 19.630793 29.587079 18.393863 C 29.846199 15.035085 31.43514 8.136634 32.368949 4.020053 C 32.628069 2.915128 32.848076 1.966652 32.984969 1.296852 C 33.063194 0.944841 33.121863 0.685721 33.146308 0.509715 C 33.185421 0.265262 33.229422 0.00614278 32.984969 -0.072082 Z M 38.343369 9.970028 C 38.221143 9.901582 38.059804 9.940694 37.986468 10.077587 C 37.663791 10.634939 36.808207 12.145656 36.314413 12.091876 C 36.221521 12.07232 35.952623 11.940316 35.678836 10.986951 C 35.488163 10.32204 35.229044 9.701131 34.725472 9.666907 C 34.358793 9.642462 33.953001 9.926027 33.327203 11.099399 C 33.488542 10.512713 33.669437 9.926027 33.80633 9.451789 C 33.85522 9.275783 33.899222 9.129112 33.938334 8.977551 C 33.982336 8.840658 33.899222 8.693986 33.762329 8.649985 C 33.625435 8.610872 33.473875 8.693986 33.434762 8.840658 C 33.39565 8.977551 33.351648 9.13889 33.297869 9.305117 C 32.945857 10.512713 32.41784 12.346107 32.280946 13.460811 C 32.266279 13.583037 32.349393 13.705263 32.471619 13.734597 C 32.496064 13.744376 32.510732 13.744376 32.540066 13.744376 C 32.647625 13.744376 32.740517 13.680818 32.784518 13.583037 C 34.060561 10.405154 34.5788 10.185147 34.701026 10.185147 C 34.725472 10.185147 34.916145 10.243815 35.175264 11.138511 C 35.449051 12.07232 35.801063 12.551447 36.265523 12.605227 C 36.954879 12.688341 37.580677 11.832757 38.436261 10.336707 C 38.519375 10.199814 38.460706 10.048253 38.343369 9.970028 Z M 41.692369 9.916249 C 41.570143 9.833135 41.423471 9.872247 41.340357 9.999363 C 40.430994 11.466078 38.90561 12.849679 38.446039 12.663895 C 38.39226 12.629672 37.957134 12.375441 38.553598 10.077587 C 38.582933 9.926027 38.499819 9.794023 38.367814 9.750021 C 38.216254 9.725576 38.07936 9.803801 38.040248 9.940694 C 37.551343 11.857202 37.614901 12.879014 38.230921 13.138133 C 38.323813 13.177246 38.421594 13.187024 38.514486 13.187024 C 39.536298 13.187024 41.095905 11.368297 41.79015 10.26826 C 41.858597 10.146034 41.819484 9.984695 41.692369 9.916249 Z M 38.485152 8.811323 C 39.179397 8.855325 39.16473 7.985074 38.607378 8.175747 C 38.323813 8.253971 37.957134 8.786878 38.485152 8.811323 Z M 45.887175 10.048253 C 45.769837 9.999363 45.60361 10.048253 45.54983 10.185147 C 45.183151 10.977173 44.371569 13.612371 43.501318 16.384463 C 42.885297 18.315638 42.191052 20.56949 41.707036 21.967759 C 42.112827 19.445009 43.310645 12.238548 43.701769 10.258482 C 43.731103 10.146034 43.662656 10.023808 43.555097 9.970028 C 43.442649 9.916249 43.310645 9.955361 43.242198 10.048253 C 43.159084 10.146034 43.061303 10.282928 42.968411 10.419821 C 42.640845 10.864725 42.191052 11.490523 41.667924 12.047875 C 41.462584 12.267882 41.350135 12.306995 41.311023 12.321662 C 41.213242 12.170101 41.257243 11.436744 41.692369 10.688719 C 41.975934 10.175368 42.655512 9.358897 43.784883 9.657129 C 43.936443 9.686463 44.073337 9.60335 44.112449 9.466456 C 44.136894 9.314896 44.05378 9.182891 43.916887 9.13889 C 42.494173 8.786878 41.501696 9.764688 41.037236 10.796278 C 40.714559 11.55897 40.602111 12.483 41.037236 12.766565 C 41.227909 12.888792 41.555476 12.932793 42.044381 12.404776 C 42.401281 12.033208 42.709291 11.642084 42.983078 11.290072 C 42.35728 14.712408 41.110572 22.349105 41.051903 22.769563 C 40.983457 23.258468 40.929677 23.678927 41.257243 23.752263 C 41.286578 23.762041 41.296356 23.762041 41.32569 23.762041 C 41.555476 23.762041 41.692369 23.463809 41.868375 23.004238 C 42.019935 22.63267 42.205719 22.104652 42.450172 21.385962 C 42.899964 20.05614 43.457316 18.271637 43.990223 16.545802 C 44.816472 13.895936 45.672056 11.162957 46.024068 10.405154 C 46.082737 10.26826 46.024068 10.121589 45.887175 10.048253 Z M 50.844672 10.06292 C 50.722446 9.999363 50.561107 10.038475 50.497549 10.160701 C 49.20684 12.22877 48.116582 13.147911 47.881907 13.064797 C 47.881907 13.064797 47.613009 12.918126 47.872129 11.35363 C 47.965021 10.825612 48.009023 10.52738 47.749903 10.419821 C 47.50545 10.32204 47.358779 10.52738 47.070325 10.933171 C 46.840539 11.260738 46.52764 11.695863 46.185407 11.994095 C 46.146294 12.02343 45.994734 12.155434 45.926287 12.106544 C 45.725836 11.940316 45.681834 11.055398 46.160961 10.243815 C 46.239186 10.121589 46.185407 9.955361 46.06318 9.872247 C 45.940954 9.803801 45.774726 9.847802 45.711169 9.970028 C 45.168484 10.918504 45.114704 12.106544 45.588942 12.497668 C 45.711169 12.605227 46.048513 12.7959 46.52764 12.404776 C 46.840539 12.130989 47.109437 11.774088 47.324555 11.475856 C 47.138772 12.74212 47.246331 13.382586 47.696123 13.558592 C 47.759681 13.583037 47.833017 13.583037 47.881907 13.583037 C 48.918386 13.583037 50.590441 10.977173 50.927786 10.429599 C 51.0109 10.307373 50.971787 10.146034 50.844672 10.06292 Z M 54.892806 9.970028 C 54.77058 9.886914 54.604352 9.916249 54.526127 10.038475 C 53.509205 11.466078 52.678066 12.360774 51.861595 12.94746 C 51.455803 13.231025 51.05979 13.284805 50.80556 13.094132 C 50.639332 12.971906 50.13576 12.429221 50.722446 10.52738 C 52.0376 9.442011 52.756291 8.410421 52.570507 7.862847 C 52.50206 7.701509 52.335833 7.59395 52.159827 7.59395 C 51.617142 7.603728 50.786003 8.542425 50.248208 10.297595 C 49.578408 12.453666 50.125982 13.245692 50.502438 13.519479 C 50.693111 13.666151 50.90823 13.734597 51.157571 13.734597 C 51.465581 13.734597 51.822482 13.612371 52.159827 13.367919 C 53.030078 12.74212 53.885662 11.81809 54.946586 10.336707 C 55.0297 10.214481 55.000365 10.048253 54.892806 9.970028 Z M 52.052268 8.16108 C 51.998488 8.376198 51.763814 8.811323 51.128237 9.466456 C 51.480249 8.67443 51.861595 8.297973 52.052268 8.16108 Z M 69.452399 9.833135 C 69.320395 9.779355 69.168834 9.833135 69.115055 9.970028 C 67.565226 13.26036 66.069176 15.675551 64.656241 17.156933 C 63.463312 18.40853 62.387721 18.926769 61.532137 18.66765 C 60.759667 18.423197 60.158314 17.513834 59.860082 16.100898 C 59.522737 14.575514 59.532515 12.619894 59.884527 10.444266 C 60.388099 7.344608 61.845036 2.959129 63.541537 0.920395 C 64.045109 0.319042 64.480235 0.0354771 64.739354 0.167481 C 65.374931 0.48527 65.634051 3.081356 64.235782 9.368675 C 64.19667 9.505569 64.289562 9.642462 64.426455 9.686463 C 64.573127 9.710909 64.71002 9.618017 64.739354 9.481123 C 65.648718 5.413433 66.426077 0.416823 64.96914 -0.306756 C 64.617128 -0.482762 64.020664 -0.468095 63.145524 0.578162 C 62.060155 1.883538 61.233905 3.824491 60.730333 5.237427 C 60.119201 6.909483 59.630296 8.786878 59.371177 10.361152 C 58.608485 15.025307 59.424956 18.555202 61.380577 19.171222 C 61.57125 19.225002 61.77659 19.249447 61.98193 19.249447 C 64.128223 19.249447 66.861202 16.017784 69.579515 10.185147 C 69.643072 10.048253 69.589293 9.901582 69.452399 9.833135 Z M 73.823211 10.048253 C 73.700985 9.955361 73.534757 9.984695 73.451643 10.092255 C 72.884513 10.825612 71.945815 11.436744 71.222236 11.29985 C 71.241792 11.206958 71.256459 11.114066 71.256459 11.016285 C 71.349351 9.481123 70.870224 9.168224 70.586659 9.114444 C 70.263982 9.045998 69.921748 9.29045 69.755521 9.701131 C 69.691963 9.666907 69.608849 9.666907 69.540402 9.725576 C 68.997718 10.06292 68.547925 10.933171 68.792378 11.871869 C 68.953716 12.429221 69.335062 12.781233 69.838634 12.781233 C 70.312872 12.781233 70.821334 12.429221 71.075564 11.803422 C 72.028929 12.008763 73.168078 11.29985 73.862323 10.419821 C 73.960104 10.297595 73.93077 10.131367 73.823211 10.048253 Z M 69.853302 12.267882 C 69.838634 12.267882 69.838634 12.267882 69.838634 12.267882 C 69.50129 12.253215 69.349729 11.925649 69.310617 11.734976 C 69.173724 11.275405 69.281283 10.634939 69.662629 10.282928 C 69.691963 10.742498 69.946194 11.246071 70.601326 11.598082 C 70.410653 12.033208 70.083087 12.267882 69.853302 12.267882 Z M 70.73822 10.986951 C 70.723553 11.016285 70.723553 11.04073 70.723553 11.070065 C 70.205313 10.73272 70.127088 10.297595 70.21998 9.955361 C 70.288427 9.740243 70.425321 9.627795 70.488878 9.627795 C 70.562214 9.642462 70.791999 9.901582 70.73822 10.986951 Z M 77.240657 0.265262 C 77.147765 0.143036 77.010872 0.0892566 76.878868 0.103924 C 76.101509 0.240817 75.27037 3.130246 75.040584 4.020053 C 74.361006 6.61125 73.505423 10.297595 72.811177 13.597704 C 72.4885 15.1622 72.22938 16.482244 72.068042 17.43072 C 71.794255 19.034329 71.833367 19.239669 72.092487 19.308115 C 72.116932 19.322783 72.146266 19.322783 72.170712 19.322783 C 72.415164 19.322783 72.54228 18.990327 72.664506 18.638315 C 72.703618 18.506311 72.635171 18.35475 72.498278 18.315638 C 72.4885 18.300971 72.473833 18.300971 72.459166 18.300971 C 72.742731 16.345351 73.916103 10.649606 75.109031 5.877893 C 75.109031 5.868115 75.123698 5.853448 75.133476 5.83878 C 76.903313 3.037354 77.597558 0.807947 77.240657 0.265262 Z M 75.568602 4.044499 C 76.086841 2.127991 76.546412 1.20396 76.795754 0.822614 C 76.741974 1.326187 76.443742 2.411556 75.568602 4.044499 Z M 79.303837 0.265262 C 79.210945 0.143036 79.074051 0.0892566 78.942047 0.103924 C 78.164688 0.240817 77.333549 3.130246 77.103764 4.020053 C 76.424186 6.61125 75.568602 10.297595 74.874357 13.597704 C 74.551679 15.1622 74.29256 16.482244 74.131221 17.43072 C 73.857434 19.034329 73.896547 19.239669 74.155666 19.308115 C 74.185001 19.322783 74.209446 19.322783 74.233891 19.322783 C 74.483233 19.322783 74.605459 18.990327 74.727685 18.638315 C 74.766798 18.506311 74.698351 18.35475 74.566347 18.315638 C 74.551679 18.300971 74.537012 18.300971 74.522345 18.300971 C 74.80591 16.345351 75.979282 10.649606 77.172211 5.877893 C 77.172211 5.868115 77.186878 5.853448 77.196656 5.83878 C 78.966492 3.037354 79.660738 0.807947 79.303837 0.265262 Z M 77.631781 4.044499 C 78.150021 2.127991 78.609592 1.20396 78.858933 0.822614 C 78.805154 1.326187 78.506922 2.411556 77.631781 4.044499 Z M 81.968369 9.970028 C 81.846143 9.886914 81.679915 9.916249 81.601691 10.038475 C 80.584768 11.466078 79.753629 12.360774 78.937158 12.94746 C 78.531367 13.231025 78.135354 13.284805 77.881123 13.094132 C 77.714895 12.971906 77.211323 12.429221 77.798009 10.52738 C 79.113164 9.442011 79.831854 8.410421 79.64607 7.862847 C 79.577624 7.701509 79.411396 7.59395 79.23539 7.59395 C 78.692705 7.603728 77.861567 8.542425 77.323771 10.297595 C 76.653971 12.453666 77.196656 13.245692 77.578002 13.519479 C 77.768675 13.666151 77.983793 13.734597 78.228246 13.734597 C 78.541145 13.734597 78.898046 13.612371 79.23539 13.367919 C 80.105641 12.74212 80.961225 11.81809 82.022149 10.336707 C 82.100374 10.214481 82.075929 10.048253 81.968369 9.970028 Z M 79.127831 8.16108 C 79.074051 8.376198 78.839377 8.811323 78.2038 9.466456 C 78.555812 8.67443 78.937158 8.297973 79.127831 8.16108 Z M 85.811163 9.916249 C 85.688937 9.847802 85.527598 9.872247 85.454263 9.999363 C 84.535121 11.397631 82.999959 13.734597 81.992815 13.519479 C 81.831476 13.475478 81.694583 13.367919 81.596802 13.187024 C 81.327904 12.703008 81.367016 11.720309 81.679915 10.864725 C 82.01726 9.955361 82.42794 9.725576 82.506165 9.740243 C 82.520832 9.750021 82.603946 9.926027 82.491498 10.351374 C 82.452386 10.498046 82.535499 10.634939 82.672393 10.678941 C 82.823953 10.703386 82.955958 10.620272 82.999959 10.483379 C 83.259079 9.505569 82.804397 9.29045 82.672393 9.231782 C 82.168821 9.08511 81.557689 9.686463 81.19101 10.688719 C 80.878111 11.534525 80.741218 12.727453 81.151898 13.446143 C 81.313237 13.759043 81.572356 13.954605 81.885256 14.018162 C 81.968369 14.047497 82.046594 14.047497 82.129708 14.047497 C 83.307969 14.047497 84.588901 12.267882 85.889388 10.282928 C 85.972502 10.160701 85.93339 9.999363 85.811163 9.916249 Z M 96.816417 4.978307 C 96.640411 4.738744 95.848385 4.587183 87.409883 4.777856 C 87.68367 3.67782 87.928122 2.685343 88.143241 1.883538 C 88.187242 1.731978 88.104128 1.595084 87.967235 1.555972 C 87.83523 1.516859 87.68367 1.595084 87.639668 1.731978 C 87.409883 2.587562 87.150763 3.62404 86.867198 4.792524 C 86.119174 4.807191 85.302702 4.816969 84.417784 4.846303 C 83.210188 4.875637 82.261713 4.900083 81.895034 4.900083 C 81.743473 4.900083 81.621247 5.022309 81.621247 5.159202 C 81.621247 5.310763 81.743473 5.432989 81.895034 5.432989 C 82.271491 5.413433 83.224856 5.403655 84.43734 5.364542 C 85.072917 5.349875 85.864943 5.335208 86.744972 5.310763 C 86.163175 7.779734 85.493375 10.742498 84.896911 13.641705 C 84.461785 15.758664 84.109774 17.592059 83.879988 18.936548 C 83.757762 19.64546 83.674648 20.202812 83.630647 20.584158 C 83.581756 21.097508 83.547533 21.39574 83.806653 21.493521 C 83.850654 21.493521 83.879988 21.508188 83.919101 21.508188 C 84.148886 21.508188 84.271112 21.180622 84.378672 20.88239 C 84.43734 20.745496 84.364004 20.598825 84.232 20.540156 C 84.202666 20.540156 84.187999 20.530378 84.163553 20.530378 C 84.300447 19.469454 84.706238 17.093375 85.493375 13.338584 C 86.080061 10.498046 86.720527 7.657507 87.287657 5.296096 C 91.022892 5.212982 95.877719 5.144535 96.435071 5.335208 C 96.527963 5.413433 96.650189 5.413433 96.762637 5.349875 C 96.870196 5.266761 96.899531 5.105423 96.816417 4.978307 Z M 91.120673 9.916249 C 90.998446 9.833135 90.846886 9.872247 90.768661 9.999363 C 89.854408 11.466078 88.333914 12.849679 87.869454 12.663895 C 87.815674 12.629672 87.385438 12.375441 87.981902 10.077587 C 88.006347 9.926027 87.923233 9.794023 87.791229 9.750021 C 87.639668 9.725576 87.502775 9.803801 87.463663 9.940694 C 86.974758 11.857202 87.043204 12.879014 87.654336 13.138133 C 87.747228 13.177246 87.845009 13.187024 87.94279 13.187024 C 88.959712 13.187024 90.524208 11.368297 91.213565 10.26826 C 91.282011 10.146034 91.242899 9.984695 91.120673 9.916249 Z M 87.908566 8.811323 C 88.602811 8.855325 88.593033 7.985074 88.035682 8.175747 C 87.747228 8.253971 87.385438 8.786878 87.908566 8.811323 Z M 95.506151 10.048253 C 95.383925 9.955361 95.222586 9.984695 95.139472 10.092255 C 94.567453 10.825612 93.633645 11.436744 92.910065 11.29985 C 92.924732 11.206958 92.9394 11.114066 92.9394 11.016285 C 93.032291 9.481123 92.558054 9.168224 92.2696 9.114444 C 91.946922 9.045998 91.604689 9.29045 91.44335 9.701131 C 91.374903 9.666907 91.291789 9.666907 91.228232 9.725576 C 90.680658 10.06292 90.235754 10.933171 90.475318 11.871869 C 90.641546 12.429221 91.022892 12.781233 91.526464 12.781233 C 92.000702 12.781233 92.504274 12.429221 92.758505 11.803422 C 93.71187 12.008763 94.851018 11.29985 95.545264 10.419821 C 95.643045 10.297595 95.61371 10.131367 95.506151 10.048253 Z M 91.536242 12.267882 C 91.526464 12.267882 91.526464 12.267882 91.526464 12.267882 C 91.18423 12.253215 91.03267 11.925649 90.993557 11.734976 C 90.856664 11.275405 90.969112 10.634939 91.345569 10.282928 C 91.374903 10.742498 91.629134 11.246071 92.284267 11.598082 C 92.093594 12.033208 91.766027 12.267882 91.536242 12.267882 Z M 92.42116 10.986951 C 92.406493 11.016285 92.406493 11.04073 92.406493 11.070065 C 91.888254 10.73272 91.810029 10.297595 91.902921 9.955361 C 91.971367 9.740243 92.108261 9.627795 92.176708 9.627795 C 92.245154 9.642462 92.47494 9.901582 92.42116 10.986951 Z M 100.395202 9.970028 C 100.272976 9.901582 100.111637 9.940694 100.038301 10.077587 C 99.715624 10.634939 98.86004 12.145656 98.366246 12.091876 C 98.273354 12.07232 98.004456 11.940316 97.730669 10.986951 C 97.539996 10.32204 97.285766 9.701131 96.777304 9.666907 C 96.410626 9.642462 96.004834 9.926027 95.379036 11.099399 C 95.540375 10.512713 95.721269 9.926027 95.858163 9.451789 C 95.911942 9.275783 95.951055 9.129112 95.990167 8.977551 C 96.034169 8.840658 95.951055 8.693986 95.814161 8.649985 C 95.677268 8.610872 95.530596 8.693986 95.486595 8.840658 C 95.447483 8.977551 95.403481 9.13889 95.354591 9.305117 C 94.99769 10.512713 94.469672 12.346107 94.332779 13.460811 C 94.323001 13.583037 94.401226 13.705263 94.523452 13.734597 C 94.547897 13.744376 94.562564 13.744376 94.591899 13.744376 C 94.699458 13.744376 94.797239 13.680818 94.836351 13.583037 C 96.112393 10.405154 96.630633 10.185147 96.752859 10.185147 C 96.777304 10.185147 96.967977 10.243815 97.227097 11.138511 C 97.500884 12.07232 97.852896 12.551447 98.317355 12.605227 C 99.006712 12.688341 99.63251 11.832757 100.488094 10.336707 C 100.571208 10.199814 100.517428 10.048253 100.395202 9.970028 Z M 105.826937 9.886914 C 105.719378 9.794023 105.553151 9.803801 105.460259 9.916249 C 104.384667 11.153179 102.702834 13.123466 102.429047 13.475478 C 102.345933 13.56837 102.267708 13.680818 102.184595 13.788377 C 102.072146 13.519479 101.940142 13.26036 101.764136 12.986573 C 101.109003 11.979428 100.527206 11.030952 100.551652 10.361152 C 100.580986 9.833135 100.854773 9.368675 101.299676 9.099777 C 101.666355 8.884659 102.072146 8.840658 102.385046 8.992218 C 102.507272 9.045998 102.6735 8.992218 102.727279 8.855325 C 102.795726 8.733098 102.741946 8.57176 102.605053 8.513091 C 102.145482 8.297973 101.544129 8.351753 101.030779 8.649985 C 100.434314 9.016663 100.077414 9.627795 100.038301 10.336707 C 99.999189 11.162957 100.595653 12.155434 101.329011 13.270138 C 101.558796 13.622149 101.710357 13.964383 101.803249 14.291949 C 100.742325 15.72933 99.603176 17.577391 100.184973 18.14941 C 100.282754 18.247191 100.400091 18.286304 100.527206 18.286304 C 100.742325 18.286304 100.991666 18.178745 101.245897 17.973405 C 101.979254 17.362273 102.741946 15.973783 102.375268 14.399508 C 102.521939 14.208835 102.6735 14.003495 102.839727 13.803044 C 103.108625 13.460811 104.790459 11.490523 105.851383 10.258482 C 105.949164 10.146034 105.934497 9.984695 105.826937 9.886914 Z M 101.412125 16.995594 C 101.040557 17.538279 100.673878 17.758286 100.551652 17.772953 C 100.497872 17.577391 100.673878 16.790254 101.940142 14.995973 C 101.993922 15.973783 101.58813 16.721808 101.412125 16.995594 Z M 101.412125 16.995594 " stroke="#38b6ff" stroke-width="0.399491" stroke-opacity="1" stroke-miterlimit="4"/><path stroke-linecap="butt" transform="matrix(0.000000000000000059, -0.96204, 1.024381, 0.000000000000000063, 123.93735, 178.673441)" fill="none" stroke-linejoin="miter" d="M 0.00162786 0.000146468 L 62.39344 0.000146468 " stroke="#000000" stroke-width="1" stroke-opacity="1" stroke-miterlimit="4"/><path stroke-linecap="butt" transform="matrix(0.000000000000000059, -0.964085, 1.024381, 0.000000000000000063, 282.611616, 166.144911)" fill="none" stroke-linejoin="miter" d="M 0.000394405 0.00162528 L 50.307137 0.00162528 " stroke="#000000" stroke-width="1" stroke-opacity="1" stroke-miterlimit="4"/></svg>