<svg xmlns="http://www.w3.org/2000/svg" xmlns:xlink="http://www.w3.org/1999/xlink" width="500" zoomAndPan="magnify" viewBox="0 0 375 374.999991" height="500" preserveAspectRatio="xMidYMid meet" version="1.0"><defs><g/></defs><g fill="#000000" fill-opacity="1"><g transform="translate(133.201937, 146.068618)"><g><path d="M 10.40625 0.25 C 8.769531 0.25 7.257812 -0.148438 5.875 -0.953125 C 4.488281 -1.765625 3.394531 -2.867188 2.59375 -4.265625 C 1.789062 -5.671875 1.390625 -7.203125 1.390625 -8.859375 C 1.390625 -10.515625 1.789062 -12.039062 2.59375 -13.4375 C 3.394531 -14.84375 4.488281 -15.945312 5.875 -16.75 C 7.257812 -17.5625 8.769531 -17.96875 10.40625 -17.96875 C 12.28125 -17.96875 13.925781 -17.457031 15.34375 -16.4375 C 16.757812 -15.414062 17.820312 -14.03125 18.53125 -12.28125 L 16.375 -12.28125 C 15.78125 -13.4375 14.960938 -14.359375 13.921875 -15.046875 C 12.890625 -15.734375 11.71875 -16.078125 10.40625 -16.078125 C 9.15625 -16.078125 8 -15.753906 6.9375 -15.109375 C 5.875 -14.472656 5.035156 -13.601562 4.421875 -12.5 C 3.804688 -11.40625 3.5 -10.191406 3.5 -8.859375 C 3.5 -7.523438 3.804688 -6.304688 4.421875 -5.203125 C 5.035156 -4.109375 5.875 -3.238281 6.9375 -2.59375 C 8 -1.957031 9.15625 -1.640625 10.40625 -1.640625 C 11.769531 -1.640625 12.972656 -1.984375 14.015625 -2.671875 C 15.066406 -3.359375 15.890625 -4.28125 16.484375 -5.4375 L 18.625 -5.4375 C 17.914062 -3.6875 16.847656 -2.300781 15.421875 -1.28125 C 13.992188 -0.257812 12.320312 0.25 10.40625 0.25 Z M 10.40625 0.25 "/></g></g></g><g fill="#000000" fill-opacity="1"><g transform="translate(152.839864, 146.068618)"><g><path d="M 10.53125 0.25 C 8.863281 0.25 7.328125 -0.148438 5.921875 -0.953125 C 4.523438 -1.765625 3.421875 -2.867188 2.609375 -4.265625 C 1.796875 -5.671875 1.390625 -7.203125 1.390625 -8.859375 C 1.390625 -10.515625 1.796875 -12.039062 2.609375 -13.4375 C 3.421875 -14.84375 4.523438 -15.945312 5.921875 -16.75 C 7.328125 -17.5625 8.863281 -17.96875 10.53125 -17.96875 C 12.195312 -17.96875 13.726562 -17.5625 15.125 -16.75 C 16.53125 -15.945312 17.640625 -14.84375 18.453125 -13.4375 C 19.265625 -12.039062 19.671875 -10.515625 19.671875 -8.859375 C 19.671875 -7.203125 19.265625 -5.671875 18.453125 -4.265625 C 17.640625 -2.867188 16.53125 -1.765625 15.125 -0.953125 C 13.726562 -0.148438 12.195312 0.25 10.53125 0.25 Z M 10.53125 -1.640625 C 11.8125 -1.640625 12.988281 -1.957031 14.0625 -2.59375 C 15.132812 -3.238281 15.984375 -4.109375 16.609375 -5.203125 C 17.242188 -6.304688 17.5625 -7.523438 17.5625 -8.859375 C 17.5625 -10.191406 17.242188 -11.40625 16.609375 -12.5 C 15.984375 -13.601562 15.132812 -14.472656 14.0625 -15.109375 C 12.988281 -15.753906 11.8125 -16.078125 10.53125 -16.078125 C 9.25 -16.078125 8.070312 -15.753906 7 -15.109375 C 5.925781 -14.472656 5.070312 -13.601562 4.4375 -12.5 C 3.8125 -11.40625 3.5 -10.191406 3.5 -8.859375 C 3.5 -7.523438 3.8125 -6.304688 4.4375 -5.203125 C 5.070312 -4.109375 5.925781 -3.238281 7 -2.59375 C 8.070312 -1.957031 9.25 -1.640625 10.53125 -1.640625 Z M 10.53125 -1.640625 "/></g></g></g><g fill="#000000" fill-opacity="1"><g transform="translate(173.894958, 146.068618)"><g><path d="M 10.53125 0.25 C 8.863281 0.25 7.328125 -0.148438 5.921875 -0.953125 C 4.523438 -1.765625 3.421875 -2.867188 2.609375 -4.265625 C 1.796875 -5.671875 1.390625 -7.203125 1.390625 -8.859375 C 1.390625 -10.515625 1.796875 -12.039062 2.609375 -13.4375 C 3.421875 -14.84375 4.523438 -15.945312 5.921875 -16.75 C 7.328125 -17.5625 8.863281 -17.96875 10.53125 -17.96875 C 12.195312 -17.96875 13.726562 -17.5625 15.125 -16.75 C 16.53125 -15.945312 17.640625 -14.84375 18.453125 -13.4375 C 19.265625 -12.039062 19.671875 -10.515625 19.671875 -8.859375 C 19.671875 -7.203125 19.265625 -5.671875 18.453125 -4.265625 C 17.640625 -2.867188 16.53125 -1.765625 15.125 -0.953125 C 13.726562 -0.148438 12.195312 0.25 10.53125 0.25 Z M 10.53125 -1.640625 C 11.8125 -1.640625 12.988281 -1.957031 14.0625 -2.59375 C 15.132812 -3.238281 15.984375 -4.109375 16.609375 -5.203125 C 17.242188 -6.304688 17.5625 -7.523438 17.5625 -8.859375 C 17.5625 -10.191406 17.242188 -11.40625 16.609375 -12.5 C 15.984375 -13.601562 15.132812 -14.472656 14.0625 -15.109375 C 12.988281 -15.753906 11.8125 -16.078125 10.53125 -16.078125 C 9.25 -16.078125 8.070312 -15.753906 7 -15.109375 C 5.925781 -14.472656 5.070312 -13.601562 4.4375 -12.5 C 3.8125 -11.40625 3.5 -10.191406 3.5 -8.859375 C 3.5 -7.523438 3.8125 -6.304688 4.4375 -5.203125 C 5.070312 -4.109375 5.925781 -3.238281 7 -2.59375 C 8.070312 -1.957031 9.25 -1.640625 10.53125 -1.640625 Z M 10.53125 -1.640625 "/></g></g></g><g fill="#000000" fill-opacity="1"><g transform="translate(194.950052, 146.068618)"><g><path d="M 11.265625 0 L 2.40625 0 L 2.40625 -17.71875 L 4.421875 -17.71875 L 4.421875 -1.890625 L 11.265625 -1.890625 Z M 11.265625 0 "/></g></g></g><g fill="#000000" fill-opacity="1"><g transform="translate(207.092122, 146.068618)"><g/></g></g><g fill="#000000" fill-opacity="1"><g transform="translate(138.541139, 181.03883)"><g><path d="M 10.40625 0.25 C 8.769531 0.25 7.257812 -0.148438 5.875 -0.953125 C 4.488281 -1.765625 3.394531 -2.867188 2.59375 -4.265625 C 1.789062 -5.671875 1.390625 -7.203125 1.390625 -8.859375 C 1.390625 -10.515625 1.789062 -12.039062 2.59375 -13.4375 C 3.394531 -14.84375 4.488281 -15.945312 5.875 -16.75 C 7.257812 -17.5625 8.769531 -17.96875 10.40625 -17.96875 C 12.28125 -17.96875 13.925781 -17.457031 15.34375 -16.4375 C 16.757812 -15.414062 17.820312 -14.03125 18.53125 -12.28125 L 16.375 -12.28125 C 15.78125 -13.4375 14.960938 -14.359375 13.921875 -15.046875 C 12.890625 -15.734375 11.71875 -16.078125 10.40625 -16.078125 C 9.15625 -16.078125 8 -15.753906 6.9375 -15.109375 C 5.875 -14.472656 5.035156 -13.601562 4.421875 -12.5 C 3.804688 -11.40625 3.5 -10.191406 3.5 -8.859375 C 3.5 -7.523438 3.804688 -6.304688 4.421875 -5.203125 C 5.035156 -4.109375 5.875 -3.238281 6.9375 -2.59375 C 8 -1.957031 9.15625 -1.640625 10.40625 -1.640625 C 11.769531 -1.640625 12.972656 -1.984375 14.015625 -2.671875 C 15.066406 -3.359375 15.890625 -4.28125 16.484375 -5.4375 L 18.625 -5.4375 C 17.914062 -3.6875 16.847656 -2.300781 15.421875 -1.28125 C 13.992188 -0.257812 12.320312 0.25 10.40625 0.25 Z M 10.40625 0.25 "/></g></g></g><g fill="#000000" fill-opacity="1"><g transform="translate(158.179067, 181.03883)"><g><path d="M 16.453125 0 L 14.28125 0 L 12.375 -4.8125 L 4.53125 -4.8125 L 2.625 0 L 0.5 0 L 7.71875 -17.71875 L 9.234375 -17.71875 Z M 11.625 -6.703125 L 8.453125 -14.703125 L 5.296875 -6.703125 Z M 11.625 -6.703125 "/></g></g></g><g fill="#000000" fill-opacity="1"><g transform="translate(175.134488, 181.03883)"><g><path d="M 7.21875 0 L 5.1875 0 L 5.1875 -15.8125 L 0.625 -15.8125 L 0.625 -17.71875 L 11.765625 -17.71875 L 11.765625 -15.8125 L 7.21875 -15.8125 Z M 7.21875 0 "/></g></g></g><g fill="#000000" fill-opacity="1"><g transform="translate(187.534722, 181.03883)"><g><path d="M 7.265625 0.25 C 6.046875 0.25 4.988281 0.0234375 4.09375 -0.421875 C 3.207031 -0.878906 2.519531 -1.515625 2.03125 -2.328125 C 1.550781 -3.140625 1.296875 -4.050781 1.265625 -5.0625 L 3.296875 -5.0625 C 3.328125 -4.0625 3.6875 -3.238281 4.375 -2.59375 C 5.070312 -1.957031 6.035156 -1.640625 7.265625 -1.640625 C 8.359375 -1.640625 9.226562 -1.898438 9.875 -2.421875 C 10.53125 -2.953125 10.859375 -3.664062 10.859375 -4.5625 C 10.859375 -5.25 10.675781 -5.816406 10.3125 -6.265625 C 9.945312 -6.710938 9.492188 -7.0625 8.953125 -7.3125 C 8.421875 -7.5625 7.695312 -7.832031 6.78125 -8.125 C 5.664062 -8.507812 4.78125 -8.863281 4.125 -9.1875 C 3.46875 -9.519531 2.898438 -10.015625 2.421875 -10.671875 C 1.953125 -11.335938 1.71875 -12.207031 1.71875 -13.28125 C 1.71875 -14.164062 1.953125 -14.960938 2.421875 -15.671875 C 2.898438 -16.378906 3.554688 -16.9375 4.390625 -17.34375 C 5.222656 -17.757812 6.164062 -17.96875 7.21875 -17.96875 C 8.207031 -17.96875 9.109375 -17.753906 9.921875 -17.328125 C 10.742188 -16.898438 11.398438 -16.304688 11.890625 -15.546875 C 12.378906 -14.785156 12.632812 -13.945312 12.65625 -13.03125 L 10.625 -13.03125 C 10.59375 -13.925781 10.25 -14.65625 9.59375 -15.21875 C 8.9375 -15.789062 8.117188 -16.078125 7.140625 -16.078125 C 6.171875 -16.078125 5.375 -15.835938 4.75 -15.359375 C 4.132812 -14.890625 3.828125 -14.195312 3.828125 -13.28125 C 3.828125 -12.644531 4 -12.113281 4.34375 -11.6875 C 4.6875 -11.269531 5.113281 -10.941406 5.625 -10.703125 C 6.144531 -10.472656 6.859375 -10.195312 7.765625 -9.875 C 8.867188 -9.519531 9.769531 -9.164062 10.46875 -8.8125 C 11.164062 -8.457031 11.753906 -7.9375 12.234375 -7.25 C 12.710938 -6.570312 12.953125 -5.675781 12.953125 -4.5625 C 12.953125 -3.644531 12.703125 -2.816406 12.203125 -2.078125 C 11.710938 -1.347656 11.035156 -0.773438 10.171875 -0.359375 C 9.316406 0.046875 8.347656 0.25 7.265625 0.25 Z M 7.265625 0.25 "/></g></g></g><path stroke-linecap="butt" transform="matrix(0.613013, 0, 0, 0.65481, 121.145644, 118.173595)" fill="none" stroke-linejoin="miter" d="M -0.0018148 -0.00262617 L 165.242321 -0.00262617 " stroke="#000000" stroke-width="1" stroke-opacity="1" stroke-miterlimit="4"/><path stroke-linecap="butt" transform="matrix(0.614574, 0, 0, 0.65481, 121.745176, 156.476049)" fill="none" stroke-linejoin="miter" d="M 0.00149379 0.000784312 L 90.396951 0.000784312 " stroke="#000000" stroke-width="1" stroke-opacity="1" stroke-miterlimit="4"/><path stroke-linecap="butt" transform="matrix(0.578813, 0, 0, 0.578813, 167.202049, 152.578087)" fill="none" stroke-linejoin="miter" d="M 29.001141 -0.539832 C 28.771684 -0.614068 28.690699 -0.384611 28.609715 -0.148406 C 28.609715 -0.134909 28.589468 -0.134909 28.589468 -0.121411 C 25.849485 9.6305 22.812558 14.442343 21.024145 14.887759 C 20.686709 14.975492 20.410011 14.887759 20.167057 14.638056 C 19.100758 13.484023 19.040019 9.056858 21.334587 1.72774 C 21.36833 1.606263 21.307592 1.471289 21.179366 1.437545 C 21.057889 1.397053 20.936412 1.457791 20.889171 1.579268 C 18.82406 8.193021 18.419136 13.436782 19.836369 14.948497 C 20.180554 15.319677 20.639468 15.454652 21.132125 15.333175 C 22.225419 15.069974 23.480682 13.639244 24.810181 11.196205 C 25.795495 9.380797 26.767312 7.052486 27.691888 4.339498 C 26.828051 8.132282 25.748254 13.065602 25.532295 15.731349 C 25.45131 16.925874 25.701013 17.735721 26.19367 17.843701 C 26.234163 17.85045 26.267906 17.85045 26.30165 17.85045 C 26.699825 17.85045 27.071005 17.384788 27.394944 16.473709 C 27.428687 16.352232 27.367949 16.224007 27.25322 16.170017 C 27.131743 16.136273 26.996769 16.197012 26.963025 16.318489 C 26.625589 17.249813 26.348891 17.405034 26.288152 17.398285 C 26.166675 17.357793 25.916972 16.858387 26.004706 15.765093 C 26.234163 12.795653 27.637898 6.708301 28.461243 3.070737 C 28.690699 2.09892 28.879664 1.255329 29.001141 0.66819 C 29.075377 0.357749 29.122618 0.128292 29.149613 -0.0269289 C 29.183356 -0.242888 29.2171 -0.472345 29.001141 -0.539832 Z M 33.745496 8.327996 C 33.637517 8.260508 33.489045 8.301001 33.428306 8.415729 C 33.144859 8.908386 32.389002 10.244634 31.950335 10.197393 C 31.86935 10.183896 31.633145 10.062419 31.39019 9.225576 C 31.221472 8.638437 30.998764 8.085041 30.553348 8.058046 C 30.222661 8.0378 29.864978 8.287503 29.311582 9.320058 C 29.460054 8.800406 29.615275 8.287503 29.736752 7.869082 C 29.783993 7.713861 29.817737 7.578887 29.851481 7.450661 C 29.891973 7.329184 29.817737 7.194209 29.69626 7.160466 C 29.574783 7.126722 29.446557 7.194209 29.412813 7.329184 C 29.372321 7.450661 29.338577 7.592384 29.291336 7.734108 C 28.974146 8.800406 28.508484 10.420101 28.393755 11.405415 C 28.380258 11.513395 28.447745 11.621375 28.555725 11.648369 C 28.58272 11.661867 28.596217 11.661867 28.616463 11.661867 C 28.710946 11.661867 28.798679 11.601128 28.832423 11.513395 C 29.95946 8.705924 30.418374 8.51696 30.526353 8.51696 C 30.553348 8.51696 30.715318 8.564201 30.944774 9.353802 C 31.187729 10.183896 31.49817 10.602317 31.909842 10.649558 C 32.517228 10.723794 33.070623 9.967936 33.826481 8.645186 C 33.900717 8.530457 33.846727 8.395483 33.745496 8.327996 Z M 36.708187 8.274006 C 36.600208 8.206518 36.465233 8.240262 36.397746 8.348242 C 35.587899 9.643997 34.244902 10.865517 33.839978 10.703548 C 33.792737 10.676553 33.40806 10.447096 33.934461 8.415729 C 33.961455 8.287503 33.887219 8.166026 33.765742 8.132282 C 33.630768 8.105288 33.516039 8.179524 33.475547 8.301001 C 33.050377 9.994931 33.104367 10.892512 33.651014 11.121969 C 33.731999 11.155712 33.812983 11.16921 33.900717 11.16921 C 34.798298 11.16921 36.181787 9.556264 36.789172 8.591196 C 36.849911 8.483216 36.816167 8.334744 36.708187 8.274006 Z M 33.873722 7.302189 C 34.487856 7.342681 34.474359 6.573326 33.981702 6.742045 C 33.731999 6.809532 33.40806 7.281943 33.873722 7.302189 Z M 40.413239 8.395483 C 40.305259 8.348242 40.163536 8.395483 40.116295 8.51696 C 39.792356 9.212079 39.070242 11.54039 38.300887 13.990178 C 37.760989 15.690857 37.146855 17.681732 36.721685 18.916749 C 37.079367 16.689669 38.132169 10.332368 38.483103 8.577698 C 38.503349 8.483216 38.449359 8.375237 38.348128 8.327996 C 38.253646 8.274006 38.132169 8.307749 38.078179 8.395483 C 38.003943 8.483216 37.91621 8.597945 37.835225 8.719422 C 37.54503 9.117597 37.146855 9.664244 36.681193 10.156901 C 36.498977 10.352614 36.404495 10.386357 36.370751 10.399855 C 36.283018 10.26488 36.32351 9.617002 36.708187 8.962376 C 36.95789 8.503462 37.558527 7.781349 38.557339 8.044549 C 38.685565 8.071544 38.807042 7.997308 38.840785 7.88258 C 38.86778 7.747605 38.793544 7.626128 38.672067 7.592384 C 37.410055 7.281943 36.539469 8.14578 36.127797 9.056858 C 35.84435 9.731731 35.743119 10.541578 36.127797 10.79803 C 36.296515 10.906009 36.58671 10.939753 37.018629 10.474091 C 37.32907 10.150152 37.605768 9.799218 37.848722 9.488777 C 37.295327 12.512207 36.188535 19.254185 36.141294 19.625365 C 36.080556 20.057284 36.033315 20.428464 36.32351 20.489202 C 36.343756 20.5027 36.357254 20.5027 36.384249 20.5027 C 36.58671 20.5027 36.708187 20.239499 36.863408 19.834576 C 36.991634 19.510637 37.160352 19.038226 37.376311 18.403845 C 37.774486 17.229567 38.267144 15.657113 38.732806 14.131901 C 39.468417 11.790093 40.224274 9.380797 40.534716 8.705924 C 40.581957 8.591196 40.534716 8.456221 40.413239 8.395483 Z M 44.793163 8.40898 C 44.685183 8.348242 44.54346 8.381985 44.482721 8.489965 C 43.342186 10.31887 42.383867 11.128717 42.174657 11.06123 C 42.174657 11.06123 41.938451 10.926256 42.167908 9.549515 C 42.248893 9.083853 42.282636 8.820653 42.059928 8.719422 C 41.843969 8.638437 41.708994 8.820653 41.459292 9.171586 C 41.25683 9.461782 40.980132 9.846459 40.676439 10.10966 C 40.642696 10.136655 40.507721 10.258132 40.446982 10.210891 C 40.271516 10.062419 40.237772 9.286315 40.656193 8.564201 C 40.730429 8.456221 40.676439 8.307749 40.56846 8.240262 C 40.46048 8.179524 40.318757 8.220016 40.258018 8.327996 C 39.778858 9.164838 39.731617 10.210891 40.150038 10.555076 C 40.258018 10.649558 40.554962 10.818276 40.980132 10.474091 C 41.25683 10.231137 41.493035 9.920695 41.688748 9.657495 C 41.52003 10.771035 41.614512 11.337928 42.012687 11.493149 C 42.066677 11.513395 42.127416 11.513395 42.174657 11.513395 C 43.092484 11.513395 44.563706 9.212079 44.867399 8.732919 C 44.934886 8.62494 44.901142 8.483216 44.793163 8.40898 Z M 48.369988 8.327996 C 48.262009 8.25376 48.120285 8.274006 48.046049 8.381985 C 47.148469 9.643997 46.412857 10.433599 45.697492 10.953251 C 45.333061 11.202953 44.982127 11.250195 44.759419 11.088225 C 44.610947 10.973497 44.17228 10.494337 44.685183 8.820653 C 45.852713 7.855585 46.487093 6.944506 46.318375 6.465347 C 46.257637 6.323624 46.115913 6.222393 45.960693 6.222393 C 45.474784 6.23589 44.745922 7.065984 44.266762 8.611442 C 43.679623 10.521332 44.158782 11.216451 44.496219 11.459405 C 44.664937 11.587631 44.853901 11.648369 45.069861 11.648369 C 45.346558 11.648369 45.657 11.54039 45.960693 11.324431 C 46.723299 10.771035 47.479156 9.954439 48.417229 8.645186 C 48.491465 8.537206 48.464471 8.395483 48.369988 8.327996 Z M 45.859462 6.728547 C 45.812221 6.917512 45.609759 7.302189 45.049614 7.88258 C 45.360056 7.180712 45.697492 6.850024 45.859462 6.728547 Z M 61.233063 8.206518 C 61.111586 8.152529 60.98336 8.206518 60.936119 8.327996 C 59.566127 11.229948 58.243376 13.362546 57.001611 14.671799 C 55.94206 15.778591 54.997239 16.230755 54.241381 16.001299 C 53.553011 15.785339 53.02661 14.982241 52.76341 13.733726 C 52.466466 12.390729 52.473215 10.663055 52.783656 8.746417 C 53.229072 6.006433 54.51133 2.132664 56.016296 0.330754 C 56.461712 -0.195647 56.84639 -0.452099 57.069098 -0.330622 C 57.635991 -0.0539238 57.865448 2.240644 56.623682 7.794846 C 56.589938 7.916323 56.670923 8.0378 56.7924 8.071544 C 56.927375 8.098539 57.042103 8.010805 57.069098 7.889328 C 57.872196 4.305754 58.560567 -0.114662 57.27156 -0.749043 C 56.961118 -0.904263 56.434718 -0.890766 55.665363 0.0338097 C 54.707043 1.181093 53.978181 2.902019 53.532765 4.150533 C 52.992867 5.621756 52.560948 7.281943 52.331491 8.672181 C 51.656619 12.788904 52.378732 15.906816 54.106407 16.446715 C 54.275125 16.493956 54.45734 16.520951 54.632807 16.520951 C 56.5292 16.520951 58.945244 13.666239 61.341042 8.51696 C 61.401781 8.395483 61.35454 8.260508 61.233063 8.206518 Z M 65.100083 8.395483 C 64.992104 8.307749 64.850381 8.334744 64.776145 8.429226 C 64.26999 9.083853 63.446645 9.617002 62.805516 9.502274 C 62.819014 9.414541 62.832511 9.333556 62.832511 9.245822 C 62.913496 7.889328 62.495075 7.619379 62.245372 7.572138 C 61.955176 7.504651 61.651484 7.727359 61.50976 8.085041 C 61.449022 8.058046 61.381535 8.058046 61.320796 8.105288 C 60.841636 8.40898 60.443462 9.171586 60.659421 10.00168 C 60.801144 10.494337 61.13858 10.804779 61.583996 10.804779 C 62.002418 10.804779 62.447834 10.494337 62.670542 9.94769 C 63.514132 10.123157 64.519693 9.502274 65.133827 8.719422 C 65.221561 8.611442 65.194566 8.469719 65.100083 8.395483 Z M 61.597494 10.352614 C 61.583996 10.352614 61.583996 10.352614 61.583996 10.352614 C 61.280304 10.339116 61.152078 10.048921 61.111586 9.886952 C 60.996857 9.475279 61.091339 8.908386 61.428776 8.597945 C 61.449022 9.009617 61.678479 9.455033 62.25212 9.765474 C 62.090151 10.150152 61.799956 10.352614 61.597494 10.352614 Z M 62.373598 9.225576 C 62.3601 9.245822 62.3601 9.272817 62.3601 9.293064 C 61.907935 8.99612 61.833699 8.611442 61.914684 8.307749 C 61.982171 8.118785 62.0969 8.024303 62.157638 8.024303 C 62.218377 8.0378 62.420839 8.260508 62.373598 9.225576 Z M 68.123513 -0.242888 C 68.042529 -0.350868 67.921051 -0.398109 67.799574 -0.384611 C 67.111204 -0.269883 66.382342 2.287885 66.17988 3.070737 C 65.579243 5.358556 64.823386 8.611442 64.209251 11.526892 C 63.925805 12.910381 63.696348 14.071163 63.554625 14.908005 C 63.311671 16.331986 63.345414 16.507453 63.574871 16.568192 C 63.595117 16.581689 63.622112 16.581689 63.642358 16.581689 C 63.865066 16.581689 63.973046 16.291494 64.081026 15.981052 C 64.114769 15.859575 64.054031 15.731349 63.932554 15.690857 C 63.925805 15.67736 63.912307 15.67736 63.89881 15.67736 C 64.148513 13.956434 65.181068 8.921884 66.240618 4.710678 C 66.240618 4.703929 66.247367 4.690432 66.260865 4.676934 C 67.819821 2.2069 68.433955 0.236271 68.123513 -0.242888 Z M 66.645542 3.090983 C 67.104455 1.397053 67.509379 0.587205 67.725338 0.249769 C 67.678097 0.695185 67.414897 1.653504 66.645542 3.090983 Z M 69.94567 -0.242888 C 69.864685 -0.350868 69.743208 -0.398109 69.621731 -0.384611 C 68.940109 -0.269883 68.204498 2.287885 68.002036 3.070737 C 67.401399 5.358556 66.645542 8.611442 66.038157 11.526892 C 65.747961 12.910381 65.518505 14.071163 65.376781 14.908005 C 65.133827 16.331986 65.167571 16.507453 65.397027 16.568192 C 65.424022 16.581689 65.444269 16.581689 65.471263 16.581689 C 65.687223 16.581689 65.795202 16.291494 65.903182 15.981052 C 65.936926 15.859575 65.876187 15.731349 65.761459 15.690857 C 65.747961 15.67736 65.734464 15.67736 65.720966 15.67736 C 65.970669 13.956434 67.009973 8.921884 68.062775 4.710678 C 68.062775 4.703929 68.076272 4.690432 68.083021 4.676934 C 69.648726 2.2069 70.256111 0.236271 69.94567 -0.242888 Z M 68.467698 3.090983 C 68.926612 1.397053 69.331535 0.587205 69.547495 0.249769 C 69.500254 0.695185 69.237053 1.653504 68.467698 3.090983 Z M 72.294227 8.327996 C 72.192996 8.25376 72.044524 8.274006 71.977037 8.381985 C 71.072707 9.643997 70.343845 10.433599 69.621731 10.953251 C 69.264048 11.202953 68.913114 11.250195 68.690406 11.088225 C 68.541934 10.973497 68.096518 10.494337 68.61617 8.820653 C 69.776951 7.855585 70.411332 6.944506 70.249362 6.465347 C 70.188624 6.323624 70.040152 6.222393 69.884931 6.222393 C 69.405771 6.23589 68.67016 7.065984 68.197749 8.611442 C 67.603861 10.521332 68.08977 11.216451 68.420457 11.459405 C 68.589175 11.587631 68.784889 11.648369 69.000848 11.648369 C 69.270797 11.648369 69.587987 11.54039 69.884931 11.324431 C 70.654286 10.771035 71.410143 9.954439 72.348217 8.645186 C 72.415704 8.537206 72.395458 8.395483 72.294227 8.327996 Z M 69.790449 6.728547 C 69.743208 6.917512 69.540746 7.302189 68.973853 7.88258 C 69.284294 7.180712 69.621731 6.850024 69.790449 6.728547 Z M 75.695585 8.274006 C 75.587606 8.220016 75.445882 8.240262 75.385144 8.348242 C 74.568548 9.583259 73.212054 11.648369 72.321222 11.459405 C 72.179498 11.418913 72.058021 11.324431 71.977037 11.16921 C 71.734082 10.737291 71.767826 9.873454 72.044524 9.117597 C 72.348217 8.307749 72.705899 8.105288 72.780135 8.118785 C 72.786884 8.132282 72.86112 8.287503 72.766638 8.658683 C 72.732894 8.793658 72.80713 8.908386 72.921858 8.948878 C 73.056833 8.975873 73.17831 8.901637 73.212054 8.78016 C 73.44151 7.916323 73.043336 7.727359 72.921858 7.673369 C 72.476442 7.545143 71.936544 8.071544 71.612605 8.962376 C 71.335907 9.704736 71.221179 10.757537 71.578862 11.398667 C 71.720585 11.668616 71.950042 11.844083 72.226739 11.898072 C 72.300976 11.925067 72.368463 11.925067 72.442699 11.925067 C 73.488752 11.925067 74.615789 10.352614 75.763073 8.597945 C 75.837309 8.489965 75.803565 8.348242 75.695585 8.274006 Z M 85.413753 3.921077 C 85.258532 3.705117 84.563413 3.570143 77.112818 3.738861 C 77.349024 2.767044 77.564983 1.88971 77.760696 1.181093 C 77.79444 1.052867 77.720204 0.93139 77.605475 0.897647 C 77.483998 0.857154 77.349024 0.93139 77.31528 1.052867 C 77.112818 1.808725 76.883361 2.719803 76.633658 3.752358 C 75.972283 3.765856 75.250169 3.772605 74.467317 3.7996 C 73.401018 3.826594 72.564176 3.846841 72.240237 3.846841 C 72.105262 3.846841 71.997283 3.95482 71.997283 4.076297 C 71.997283 4.211272 72.105262 4.319252 72.240237 4.319252 C 72.570925 4.305754 73.414516 4.292257 74.480814 4.258513 C 75.047708 4.245016 75.742826 4.231518 76.525679 4.211272 C 76.006027 6.391111 75.418888 9.009617 74.892487 11.567385 C 74.507809 13.436782 74.190619 15.056477 73.994906 16.244253 C 73.880178 16.865136 73.81269 17.357793 73.772198 17.695229 C 73.724957 18.154143 73.704711 18.417343 73.927419 18.498328 C 73.967911 18.498328 73.994906 18.511825 74.02865 18.511825 C 74.231112 18.511825 74.339091 18.22163 74.433573 17.958429 C 74.480814 17.843701 74.420076 17.708727 74.305348 17.661485 C 74.278353 17.661485 74.264855 17.647988 74.244609 17.647988 C 74.366086 16.709915 74.723769 14.611061 75.418888 11.297436 C 75.931791 8.793658 76.498684 6.283131 77.004838 4.197774 C 80.304966 4.123538 84.583659 4.0628 85.076316 4.231518 C 85.16405 4.305754 85.272029 4.305754 85.366512 4.245016 C 85.460994 4.17078 85.487989 4.029056 85.413753 3.921077 Z M 80.385951 8.274006 C 80.277971 8.206518 80.142997 8.240262 80.075509 8.348242 C 79.272411 9.643997 77.922665 10.865517 77.517742 10.703548 C 77.470501 10.676553 77.085823 10.447096 77.612224 8.415729 C 77.639219 8.287503 77.564983 8.166026 77.450254 8.132282 C 77.31528 8.105288 77.193803 8.179524 77.160059 8.301001 C 76.728141 9.994931 76.788879 10.892512 77.328777 11.121969 C 77.409762 11.155712 77.497496 11.16921 77.57848 11.16921 C 78.476061 11.16921 79.85955 9.556264 80.473684 8.591196 C 80.527674 8.483216 80.49393 8.334744 80.385951 8.274006 Z M 77.551485 7.302189 C 78.16562 7.342681 78.152122 6.573326 77.659465 6.742045 C 77.409762 6.809532 77.085823 7.281943 77.551485 7.302189 Z M 84.266469 8.395483 C 84.151741 8.307749 84.010017 8.334744 83.935781 8.429226 C 83.436376 9.083853 82.606282 9.617002 81.971902 9.502274 C 81.985399 9.414541 81.998897 9.333556 81.998897 9.245822 C 82.079881 7.889328 81.66146 7.619379 81.405009 7.572138 C 81.121562 7.504651 80.817869 7.727359 80.676146 8.085041 C 80.615408 8.058046 80.541172 8.058046 80.487182 8.105288 C 80.001273 8.40898 79.609847 9.171586 79.819058 10.00168 C 79.96753 10.494337 80.304966 10.804779 80.750382 10.804779 C 81.168803 10.804779 81.614219 10.494337 81.836927 9.94769 C 82.680518 10.123157 83.686079 9.502274 84.300213 8.719422 C 84.381197 8.611442 84.360951 8.469719 84.266469 8.395483 Z M 80.757131 10.352614 C 80.750382 10.352614 80.750382 10.352614 80.750382 10.352614 C 80.446689 10.339116 80.311715 10.048921 80.277971 9.886952 C 80.156494 9.475279 80.257725 8.908386 80.588413 8.597945 C 80.615408 9.009617 80.844864 9.455033 81.418506 9.765474 C 81.249788 10.150152 80.959593 10.352614 80.757131 10.352614 Z M 81.539983 9.225576 C 81.526486 9.245822 81.526486 9.272817 81.526486 9.293064 C 81.067572 8.99612 81.000085 8.611442 81.08107 8.307749 C 81.141808 8.118785 81.263285 8.024303 81.324024 8.024303 C 81.384763 8.0378 81.587224 8.260508 81.539983 9.225576 Z M 88.585655 8.327996 C 88.477675 8.260508 88.329203 8.301001 88.268464 8.415729 C 87.985018 8.908386 87.22916 10.244634 86.797242 10.197393 C 86.709508 10.183896 86.473303 10.062419 86.230349 9.225576 C 86.061631 8.638437 85.838923 8.085041 85.393507 8.058046 C 85.062819 8.0378 84.705136 8.287503 84.151741 9.320058 C 84.300213 8.800406 84.455433 8.287503 84.576911 7.869082 C 84.624152 7.713861 84.657895 7.578887 84.691639 7.450661 C 84.732131 7.329184 84.657895 7.194209 84.536418 7.160466 C 84.414941 7.126722 84.286715 7.194209 84.252972 7.329184 C 84.212479 7.450661 84.178736 7.592384 84.131495 7.734108 C 83.814304 8.800406 83.348642 10.420101 83.233914 11.405415 C 83.220416 11.513395 83.287904 11.621375 83.395883 11.648369 C 83.422878 11.661867 83.436376 11.661867 83.456622 11.661867 C 83.551104 11.661867 83.638837 11.601128 83.672581 11.513395 C 84.799619 8.705924 85.258532 8.51696 85.366512 8.51696 C 85.393507 8.51696 85.555476 8.564201 85.784933 9.353802 C 86.027887 10.183896 86.338328 10.602317 86.750001 10.649558 C 87.357386 10.723794 87.910782 9.967936 88.666639 8.645186 C 88.740875 8.530457 88.686885 8.395483 88.585655 8.327996 Z M 93.384 8.25376 C 93.289518 8.166026 93.141046 8.179524 93.060061 8.274006 C 92.115239 9.3673 90.62377 11.108471 90.380816 11.418913 C 90.313329 11.506646 90.239093 11.601128 90.164857 11.695611 C 90.070375 11.459405 89.948898 11.229948 89.793677 10.986994 C 89.220035 10.102911 88.700383 9.25932 88.727378 8.672181 C 88.754373 8.206518 88.990578 7.794846 89.388753 7.551892 C 89.712692 7.362928 90.070375 7.329184 90.347072 7.464158 C 90.455052 7.504651 90.596775 7.464158 90.644016 7.342681 C 90.704755 7.234702 90.657514 7.08623 90.536037 7.038989 C 90.131113 6.850024 89.604712 6.897265 89.145799 7.160466 C 88.619398 7.484405 88.308957 8.024303 88.268464 8.645186 C 88.234721 9.380797 88.761121 10.258132 89.408999 11.243446 C 89.61821 11.553887 89.746436 11.850831 89.82742 12.141027 C 88.896096 13.409787 87.890536 15.042979 88.403439 15.549134 C 88.491172 15.630119 88.592403 15.663862 88.700383 15.663862 C 88.896096 15.663862 89.112055 15.576129 89.334763 15.393913 C 89.98939 14.854015 90.657514 13.625747 90.333575 12.235509 C 90.46855 12.066791 90.596775 11.884575 90.745247 11.709108 C 90.981453 11.405415 92.466173 9.664244 93.404246 8.577698 C 93.491979 8.483216 93.478482 8.334744 93.384 8.25376 Z M 89.483235 14.530076 C 89.159296 15.009236 88.835357 15.1982 88.727378 15.211697 C 88.680137 15.042979 88.835357 14.34786 89.948898 12.761909 C 90.002887 13.625747 89.638456 14.287122 89.483235 14.530076 Z M 89.483235 14.530076 " stroke="#1c2120" stroke-width="0.3525" stroke-opacity="1" stroke-miterlimit="4"/><path stroke-linecap="butt" transform="matrix(0.000000000000000038, -0.61496, 0.65481, 0.00000000000000004, 121.484133, 156.724691)" fill="none" stroke-linejoin="miter" d="M -0.00304278 0.000370302 L 62.393001 0.000370302 " stroke="#000000" stroke-width="1" stroke-opacity="1" stroke-miterlimit="4"/><path stroke-linecap="butt" transform="matrix(0.000000000000000038, -0.616268, 0.65481, 0.00000000000000004, 222.912705, 148.716141)" fill="none" stroke-linejoin="miter" d="M 0.00210572 0.00207303 L 50.304922 0.00207303 " stroke="#000000" stroke-width="1" stroke-opacity="1" stroke-miterlimit="4"/></svg>