<svg xmlns="http://www.w3.org/2000/svg" xmlns:xlink="http://www.w3.org/1999/xlink" width="500" zoomAndPan="magnify" viewBox="0 0 375 374.999991" height="500" preserveAspectRatio="xMidYMid meet" version="1.0"><defs><g/></defs><g fill="#38b6ff" fill-opacity="1"><g transform="translate(142.267888, 162.910416)"><g><path d="M 16.265625 0.390625 C 13.710938 0.390625 11.351562 -0.238281 9.1875 -1.5 C 7.019531 -2.769531 5.304688 -4.5 4.046875 -6.6875 C 2.796875 -8.882812 2.171875 -11.273438 2.171875 -13.859375 C 2.171875 -16.441406 2.796875 -18.828125 4.046875 -21.015625 C 5.304688 -23.210938 7.019531 -24.941406 9.1875 -26.203125 C 11.351562 -27.472656 13.710938 -28.109375 16.265625 -28.109375 C 19.203125 -28.109375 21.773438 -27.3125 23.984375 -25.71875 C 26.203125 -24.125 27.867188 -21.953125 28.984375 -19.203125 L 25.609375 -19.203125 C 24.691406 -21.023438 23.421875 -22.46875 21.796875 -23.53125 C 20.171875 -24.601562 18.328125 -25.140625 16.265625 -25.140625 C 14.316406 -25.140625 12.507812 -24.640625 10.84375 -23.640625 C 9.1875 -22.640625 7.875 -21.28125 6.90625 -19.5625 C 5.945312 -17.84375 5.46875 -15.941406 5.46875 -13.859375 C 5.46875 -11.773438 5.945312 -9.875 6.90625 -8.15625 C 7.875 -6.4375 9.1875 -5.078125 10.84375 -4.078125 C 12.507812 -3.078125 14.316406 -2.578125 16.265625 -2.578125 C 18.410156 -2.578125 20.300781 -3.109375 21.9375 -4.171875 C 23.570312 -5.242188 24.851562 -6.691406 25.78125 -8.515625 L 29.140625 -8.515625 C 28.035156 -5.765625 26.363281 -3.59375 24.125 -2 C 21.894531 -0.40625 19.273438 0.390625 16.265625 0.390625 Z M 16.265625 0.390625 "/></g></g></g><g fill="#38b6ff" fill-opacity="1"><g transform="translate(172.987394, 162.910416)"><g><path d="M 16.46875 0.390625 C 13.851562 0.390625 11.453125 -0.238281 9.265625 -1.5 C 7.078125 -2.769531 5.347656 -4.5 4.078125 -6.6875 C 2.804688 -8.882812 2.171875 -11.273438 2.171875 -13.859375 C 2.171875 -16.441406 2.804688 -18.828125 4.078125 -21.015625 C 5.347656 -23.210938 7.078125 -24.941406 9.265625 -26.203125 C 11.453125 -27.472656 13.851562 -28.109375 16.46875 -28.109375 C 19.082031 -28.109375 21.484375 -27.472656 23.671875 -26.203125 C 25.867188 -24.941406 27.597656 -23.210938 28.859375 -21.015625 C 30.128906 -18.828125 30.765625 -16.441406 30.765625 -13.859375 C 30.765625 -11.273438 30.128906 -8.882812 28.859375 -6.6875 C 27.597656 -4.5 25.867188 -2.769531 23.671875 -1.5 C 21.484375 -0.238281 19.082031 0.390625 16.46875 0.390625 Z M 16.46875 -2.578125 C 18.476562 -2.578125 20.320312 -3.078125 22 -4.078125 C 23.675781 -5.078125 25.007812 -6.4375 26 -8.15625 C 26.988281 -9.875 27.484375 -11.773438 27.484375 -13.859375 C 27.484375 -15.941406 26.988281 -17.84375 26 -19.5625 C 25.007812 -21.28125 23.675781 -22.640625 22 -23.640625 C 20.320312 -24.640625 18.476562 -25.140625 16.46875 -25.140625 C 14.46875 -25.140625 12.628906 -24.640625 10.953125 -23.640625 C 9.273438 -22.640625 7.941406 -21.28125 6.953125 -19.5625 C 5.960938 -17.84375 5.46875 -15.941406 5.46875 -13.859375 C 5.46875 -11.773438 5.960938 -9.875 6.953125 -8.15625 C 7.941406 -6.4375 9.273438 -5.078125 10.953125 -4.078125 C 12.628906 -3.078125 14.46875 -2.578125 16.46875 -2.578125 Z M 16.46875 -2.578125 "/></g></g></g><g fill="#38b6ff" fill-opacity="1"><g transform="translate(205.923769, 162.910416)"><g><path d="M 16.46875 0.390625 C 13.851562 0.390625 11.453125 -0.238281 9.265625 -1.5 C 7.078125 -2.769531 5.347656 -4.5 4.078125 -6.6875 C 2.804688 -8.882812 2.171875 -11.273438 2.171875 -13.859375 C 2.171875 -16.441406 2.804688 -18.828125 4.078125 -21.015625 C 5.347656 -23.210938 7.078125 -24.941406 9.265625 -26.203125 C 11.453125 -27.472656 13.851562 -28.109375 16.46875 -28.109375 C 19.082031 -28.109375 21.484375 -27.472656 23.671875 -26.203125 C 25.867188 -24.941406 27.597656 -23.210938 28.859375 -21.015625 C 30.128906 -18.828125 30.765625 -16.441406 30.765625 -13.859375 C 30.765625 -11.273438 30.128906 -8.882812 28.859375 -6.6875 C 27.597656 -4.5 25.867188 -2.769531 23.671875 -1.5 C 21.484375 -0.238281 19.082031 0.390625 16.46875 0.390625 Z M 16.46875 -2.578125 C 18.476562 -2.578125 20.320312 -3.078125 22 -4.078125 C 23.675781 -5.078125 25.007812 -6.4375 26 -8.15625 C 26.988281 -9.875 27.484375 -11.773438 27.484375 -13.859375 C 27.484375 -15.941406 26.988281 -17.84375 26 -19.5625 C 25.007812 -21.28125 23.675781 -22.640625 22 -23.640625 C 20.320312 -24.640625 18.476562 -25.140625 16.46875 -25.140625 C 14.46875 -25.140625 12.628906 -24.640625 10.953125 -23.640625 C 9.273438 -22.640625 7.941406 -21.28125 6.953125 -19.5625 C 5.960938 -17.84375 5.46875 -15.941406 5.46875 -13.859375 C 5.46875 -11.773438 5.960938 -9.875 6.953125 -8.15625 C 7.941406 -6.4375 9.273438 -5.078125 10.953125 -4.078125 C 12.628906 -3.078125 14.46875 -2.578125 16.46875 -2.578125 Z M 16.46875 -2.578125 "/></g></g></g><g fill="#38b6ff" fill-opacity="1"><g transform="translate(238.860143, 162.910416)"><g><path d="M 17.625 0 L 3.765625 0 L 3.765625 -27.71875 L 6.921875 -27.71875 L 6.921875 -2.96875 L 17.625 -2.96875 Z M 17.625 0 "/></g></g></g><g fill="#38b6ff" fill-opacity="1"><g transform="translate(154.202641, 218.039982)"><g><path d="M 24.421875 -5.859375 L 24.421875 -27.71875 L 27.515625 -27.71875 L 27.515625 0 L 25.53125 0 L 6.84375 -21.859375 L 6.84375 0 L 3.765625 0 L 3.765625 -27.71875 L 5.734375 -27.71875 Z M 24.421875 -5.859375 "/></g></g></g><g fill="#38b6ff" fill-opacity="1"><g transform="translate(185.476357, 218.039982)"><g><path d="M 16.828125 -27.71875 L 16.828125 -24.75 L 6.921875 -24.75 L 6.921875 -15.84375 L 16.4375 -15.84375 L 16.4375 -12.875 L 6.921875 -12.875 L 6.921875 0 L 3.765625 0 L 3.765625 -27.71875 Z M 16.828125 -27.71875 "/></g></g></g><g fill="#38b6ff" fill-opacity="1"><g transform="translate(204.280177, 218.039982)"><g><path d="M 11.28125 0 L 8.109375 0 L 8.109375 -24.75 L 0.984375 -24.75 L 0.984375 -27.71875 L 18.40625 -27.71875 L 18.40625 -24.75 L 11.28125 -24.75 Z M 11.28125 0 "/></g></g></g><g fill="#38b6ff" fill-opacity="1"><g transform="translate(223.677807, 218.039982)"><g><path d="M 11.359375 0.390625 C 9.460938 0.390625 7.8125 0.0351562 6.40625 -0.671875 C 5.007812 -1.378906 3.9375 -2.367188 3.1875 -3.640625 C 2.4375 -4.910156 2.035156 -6.335938 1.984375 -7.921875 L 5.140625 -7.921875 C 5.191406 -6.359375 5.757812 -5.078125 6.84375 -4.078125 C 7.925781 -3.078125 9.429688 -2.578125 11.359375 -2.578125 C 13.078125 -2.578125 14.441406 -2.984375 15.453125 -3.796875 C 16.472656 -4.617188 16.984375 -5.726562 16.984375 -7.125 C 16.984375 -8.207031 16.695312 -9.097656 16.125 -9.796875 C 15.5625 -10.492188 14.859375 -11.039062 14.015625 -11.4375 C 13.171875 -11.832031 12.035156 -12.253906 10.609375 -12.703125 C 8.867188 -13.316406 7.484375 -13.878906 6.453125 -14.390625 C 5.421875 -14.910156 4.535156 -15.679688 3.796875 -16.703125 C 3.054688 -17.734375 2.6875 -19.09375 2.6875 -20.78125 C 2.6875 -22.15625 3.054688 -23.394531 3.796875 -24.5 C 4.535156 -25.613281 5.554688 -26.492188 6.859375 -27.140625 C 8.171875 -27.785156 9.644531 -28.109375 11.28125 -28.109375 C 12.84375 -28.109375 14.257812 -27.769531 15.53125 -27.09375 C 16.8125 -26.425781 17.832031 -25.5 18.59375 -24.3125 C 19.363281 -23.125 19.765625 -21.816406 19.796875 -20.390625 L 16.625 -20.390625 C 16.570312 -21.785156 16.03125 -22.925781 15 -23.8125 C 13.976562 -24.695312 12.703125 -25.140625 11.171875 -25.140625 C 9.660156 -25.140625 8.414062 -24.769531 7.4375 -24.03125 C 6.46875 -23.289062 5.984375 -22.207031 5.984375 -20.78125 C 5.984375 -19.78125 6.253906 -18.945312 6.796875 -18.28125 C 7.335938 -17.625 8.007812 -17.109375 8.8125 -16.734375 C 9.613281 -16.367188 10.726562 -15.9375 12.15625 -15.4375 C 13.875 -14.882812 15.28125 -14.332031 16.375 -13.78125 C 17.46875 -13.226562 18.390625 -12.414062 19.140625 -11.34375 C 19.890625 -10.269531 20.265625 -8.863281 20.265625 -7.125 C 20.265625 -5.695312 19.875 -4.410156 19.09375 -3.265625 C 18.320312 -2.117188 17.257812 -1.222656 15.90625 -0.578125 C 14.5625 0.0664062 13.046875 0.390625 11.359375 0.390625 Z M 11.359375 0.390625 "/></g></g></g><path stroke-linecap="butt" transform="matrix(0.958995, 0, 0, 1.024381, 123.407809, 118.364347)" fill="none" stroke-linejoin="miter" d="M -0.00162587 -0.00104002 L 165.243064 -0.00104002 " stroke="#38b6ff" stroke-width="1" stroke-opacity="1" stroke-miterlimit="4"/><path stroke-linecap="butt" transform="matrix(0.961436, 0, 0, 1.024381, 124.34572, 178.284466)" fill="none" stroke-linejoin="miter" d="M 0.0020144 0.000673927 L 90.398237 0.000673927 " stroke="#38b6ff" stroke-width="1" stroke-opacity="1" stroke-miterlimit="4"/><path stroke-linecap="butt" transform="matrix(0.75, 0, 0, 0.75, 195.458195, 172.086507)" fill="none" stroke-linejoin="miter" d="M 27.972409 -0.219509 C 27.670325 -0.313259 27.555742 -0.0111761 27.446367 0.306532 C 27.446367 0.316949 27.430742 0.316949 27.430742 0.332574 C 23.81095 13.197158 19.805741 19.540908 17.451575 20.124242 C 17.003658 20.238825 16.644283 20.124242 16.326575 19.790909 C 14.920324 18.275283 14.836991 12.436741 17.857825 2.770074 C 17.909908 2.613824 17.826575 2.441949 17.6547 2.389866 C 17.493241 2.342991 17.336991 2.426324 17.274491 2.582574 C 14.550533 11.301325 14.014074 18.207575 15.878658 20.207575 C 16.3422 20.697159 16.941158 20.869034 17.5922 20.712784 C 19.034908 20.363825 20.691158 18.478408 22.446367 15.25445 C 23.743242 12.863825 25.024492 9.796116 26.243242 6.223199 C 25.102617 11.217991 23.680742 17.7232 23.399492 21.233617 C 23.284908 22.811742 23.618242 23.874242 24.264075 24.020075 C 24.316158 24.0357 24.363033 24.0357 24.409908 24.0357 C 24.930742 24.0357 25.420325 23.415909 25.847409 22.212784 C 25.894284 22.056534 25.816159 21.884659 25.659909 21.81695 C 25.503659 21.770075 25.326575 21.853409 25.2797 22.009659 C 24.836992 23.244034 24.472408 23.447159 24.394283 23.431534 C 24.232825 23.384659 23.9047 22.7232 24.014075 21.280492 C 24.316158 17.369033 26.165117 9.337783 27.253659 4.546116 C 27.555742 3.264866 27.81095 2.155491 27.972409 1.379449 C 28.06095 0.967991 28.128659 0.665907 28.159909 0.462782 C 28.206784 0.176324 28.253659 -0.125759 27.972409 -0.219509 Z M 34.211992 11.4732 C 34.071367 11.395075 33.878659 11.436741 33.800534 11.5982 C 33.420326 12.244033 32.425534 14.00445 31.852617 13.94195 C 31.743242 13.921116 31.430742 13.770075 31.113034 12.6607 C 30.889076 11.884658 30.592201 11.155491 30.003659 11.124241 C 29.576575 11.092991 29.102617 11.421116 28.37345 12.7857 C 28.56095 12.103408 28.769284 11.421116 28.930742 10.869033 C 28.993242 10.665908 29.034909 10.494033 29.081784 10.31695 C 29.133867 10.1607 29.034909 9.988825 28.878659 9.936741 C 28.722409 9.889866 28.545325 9.988825 28.49845 10.1607 C 28.451575 10.31695 28.4047 10.509658 28.3422 10.697158 C 27.930742 12.103408 27.316159 14.238825 27.1547 15.5357 C 27.139075 15.681533 27.232825 15.822158 27.378659 15.853408 C 27.409909 15.869033 27.425534 15.869033 27.456784 15.869033 C 27.581784 15.869033 27.691159 15.790908 27.738034 15.681533 C 29.227617 11.978408 29.826575 11.7232 29.972409 11.7232 C 30.003659 11.7232 30.222409 11.790908 30.524492 12.832575 C 30.842201 13.921116 31.253659 14.478408 31.790117 14.540908 C 32.597409 14.634658 33.326576 13.639866 34.321367 11.900283 C 34.415117 11.738825 34.352617 11.56695 34.211992 11.4732 Z M 38.118243 11.405491 C 37.972409 11.31695 37.800534 11.363825 37.706784 11.50445 C 36.644284 13.212783 34.873451 14.827367 34.336992 14.608616 C 34.274492 14.572158 33.769284 14.275283 34.461992 11.5982 C 34.493242 11.421116 34.394284 11.264866 34.243242 11.217991 C 34.066159 11.186741 33.904701 11.280491 33.857826 11.436741 C 33.290117 13.671116 33.368242 14.858617 34.081784 15.1607 C 34.191159 15.202367 34.305742 15.217992 34.415117 15.217992 C 35.602618 15.217992 37.420326 13.0982 38.227618 11.822158 C 38.305743 11.676325 38.258868 11.488825 38.118243 11.405491 Z M 34.378659 10.124241 C 35.185951 10.176325 35.170326 9.165908 34.524492 9.384658 C 34.191159 9.478408 33.769284 10.092991 34.378659 10.124241 Z M 42.998451 11.56695 C 42.863035 11.50445 42.670326 11.56695 42.607826 11.7232 C 42.180743 12.645075 41.232826 15.712783 40.222409 18.94195 C 39.503659 21.186742 38.696368 23.811742 38.128659 25.441951 C 38.607826 22.499242 39.998451 14.113825 40.456785 11.806533 C 40.488035 11.676325 40.40991 11.5357 40.279701 11.4732 C 40.154701 11.405491 39.998451 11.452366 39.920326 11.56695 C 39.821368 11.676325 39.711993 11.837783 39.602618 11.994033 C 39.217201 12.514866 38.696368 13.244033 38.081784 13.889866 C 37.847409 14.145075 37.717201 14.19195 37.670326 14.207575 C 37.560951 14.0357 37.607826 13.181533 38.113034 12.311741 C 38.446368 11.707575 39.238034 10.759658 40.550535 11.108616 C 40.727618 11.139866 40.883868 11.046116 40.930743 10.884658 C 40.961993 10.712783 40.863035 10.556533 40.706785 10.509658 C 39.045326 10.092991 37.889076 11.233616 37.352618 12.436741 C 36.977618 13.322158 36.847409 14.395075 37.352618 14.728408 C 37.576576 14.874242 37.956784 14.921117 38.524493 14.306533 C 38.935951 13.874241 39.300534 13.415908 39.618243 13.00445 C 38.889076 16.994033 37.435951 25.884659 37.368243 26.374242 C 37.290118 26.941951 37.227618 27.431534 37.607826 27.514867 C 37.639076 27.530492 37.654701 27.530492 37.685951 27.530492 C 37.956784 27.530492 38.113034 27.181534 38.321368 26.645076 C 38.493243 26.217992 38.711993 25.598201 38.998451 24.759659 C 39.519284 23.212784 40.170326 21.134659 40.790118 19.12945 C 41.75366 16.040908 42.748451 12.863825 43.15991 11.978408 C 43.22241 11.822158 43.15991 11.645075 42.998451 11.56695 Z M 48.774493 11.582575 C 48.62866 11.50445 48.44116 11.551325 48.363035 11.69195 C 46.863035 14.0982 45.59741 15.176325 45.326576 15.077367 C 45.326576 15.077367 45.008868 14.905492 45.310951 13.082575 C 45.420326 12.467991 45.467201 12.124241 45.165118 11.994033 C 44.883868 11.884658 44.711993 12.124241 44.37866 12.592991 C 44.107826 12.978408 43.743243 13.483616 43.34741 13.827366 C 43.300535 13.858616 43.12866 14.020075 43.045326 13.957575 C 42.810951 13.770075 42.764076 12.738825 43.31616 11.790908 C 43.415118 11.645075 43.34741 11.452366 43.206785 11.363825 C 43.06616 11.280491 42.873451 11.332575 42.795326 11.4732 C 42.15991 12.577366 42.09741 13.957575 42.649493 14.4107 C 42.795326 14.540908 43.19116 14.764867 43.743243 14.306533 C 44.107826 13.988825 44.425535 13.577366 44.675535 13.228408 C 44.456785 14.697158 44.581785 15.44195 45.102618 15.650283 C 45.180743 15.681533 45.264076 15.681533 45.326576 15.681533 C 46.529702 15.681533 48.47241 12.645075 48.868243 12.009658 C 48.961993 11.869033 48.915118 11.676325 48.774493 11.582575 Z M 53.482827 11.4732 C 53.34741 11.37945 53.154702 11.405491 53.060952 11.551325 C 51.873452 13.212783 50.90991 14.25445 49.956785 14.936742 C 49.482827 15.270075 49.024493 15.332575 48.727618 15.113825 C 48.53491 14.967992 47.951577 14.337783 48.62866 12.124241 C 50.165118 10.853408 50.998452 9.655491 50.779702 9.020074 C 50.701577 8.832574 50.508868 8.702366 50.305743 8.702366 C 49.670327 8.717991 48.706785 9.811741 48.076577 11.853408 C 47.300535 14.369033 47.935952 15.2857 48.373452 15.603408 C 48.59741 15.775283 48.84741 15.853408 49.133868 15.853408 C 49.498452 15.853408 49.90991 15.712783 50.305743 15.426325 C 51.31616 14.697158 52.31616 13.624241 53.550535 11.900283 C 53.644285 11.75445 53.613035 11.56695 53.482827 11.4732 Z M 50.180743 9.369033 C 50.118243 9.619033 49.84741 10.124241 49.102618 10.884658 C 49.514077 9.967991 49.956785 9.525283 50.180743 9.369033 Z M 70.441161 11.31695 C 70.284911 11.249241 70.107828 11.31695 70.045328 11.4732 C 68.243245 15.301325 66.503661 18.119033 64.857828 19.837784 C 63.467203 21.296117 62.211994 21.900284 61.217203 21.5982 C 60.316161 21.311742 59.618244 20.25445 59.269286 18.608617 C 58.878661 16.832575 58.894286 14.556533 59.300536 12.025283 C 59.889077 8.421116 61.581786 3.306532 63.555744 0.936741 C 64.144286 0.238824 64.649494 -0.0945095 64.951578 0.0669489 C 65.696369 0.431532 65.993245 3.452366 64.363036 10.775283 C 64.321369 10.931533 64.425536 11.092991 64.586994 11.139866 C 64.758869 11.171116 64.915119 11.061741 64.951578 10.900283 C 66.00887 6.171116 66.91512 0.348199 65.217203 -0.490343 C 64.810953 -0.693468 64.113036 -0.677843 63.097411 0.540907 C 61.836994 2.056532 60.868244 4.322157 60.284911 5.967991 C 59.571369 7.910699 59.003661 10.092991 58.701577 11.931533 C 57.816161 17.353408 58.764077 21.467992 61.045328 22.181534 C 61.264078 22.244034 61.503661 22.275284 61.738036 22.275284 C 64.238036 22.275284 67.420328 18.509658 70.581786 11.7232 C 70.659911 11.56695 70.597411 11.395075 70.441161 11.31695 Z M 75.529703 11.56695 C 75.389078 11.452366 75.19637 11.488825 75.10262 11.613825 C 74.435953 12.467991 73.347412 13.181533 72.503662 13.020075 C 72.524495 12.9107 72.54012 12.801325 72.54012 12.69195 C 72.649495 10.900283 72.097412 10.540908 71.764078 10.478408 C 71.38387 10.395075 70.988037 10.681533 70.800536 11.155491 C 70.722411 11.124241 70.623453 11.124241 70.545328 11.186741 C 69.91512 11.582575 69.394286 12.592991 69.675536 13.686741 C 69.863036 14.337783 70.305745 14.744033 70.894287 14.744033 C 71.44637 14.744033 72.034912 14.337783 72.331787 13.608616 C 73.441162 13.842991 74.769287 13.020075 75.576578 11.994033 C 75.685953 11.853408 75.654703 11.6607 75.529703 11.56695 Z M 70.909912 14.145075 C 70.894287 14.145075 70.894287 14.145075 70.894287 14.145075 C 70.498453 14.12945 70.32137 13.749241 70.274495 13.530491 C 70.118245 12.994033 70.248453 12.244033 70.685953 11.837783 C 70.722411 12.374241 71.019287 12.962783 71.779703 13.369033 C 71.560953 13.874241 71.175537 14.145075 70.909912 14.145075 Z M 71.935953 12.6607 C 71.920328 12.69195 71.920328 12.7232 71.920328 12.75445 C 71.32137 12.358616 71.22762 11.853408 71.336995 11.452366 C 71.41512 11.202366 71.576578 11.077366 71.649495 11.077366 C 71.732828 11.092991 71.998453 11.395075 71.935953 12.6607 Z M 79.514079 0.176324 C 79.404704 0.0356989 79.243245 -0.0268011 79.086995 -0.0111761 C 78.185954 0.145074 77.217204 3.514866 76.951579 4.546116 C 76.159912 7.566949 75.16512 11.853408 74.357828 15.697158 C 73.97762 17.514867 73.675537 19.051325 73.488037 20.155492 C 73.170328 22.025284 73.217203 22.259659 73.519287 22.342992 C 73.550537 22.358617 73.581787 22.358617 73.613037 22.358617 C 73.894287 22.358617 74.04012 21.9732 74.180745 21.56695 C 74.22762 21.405492 74.149495 21.233617 73.993245 21.186742 C 73.97762 21.165909 73.961995 21.165909 73.941162 21.165909 C 74.274495 18.895075 75.639078 12.259658 77.029704 6.712783 C 77.029704 6.697158 77.045329 6.681533 77.060954 6.660699 C 79.118245 3.405491 79.925537 0.811741 79.514079 0.176324 Z M 77.566162 4.577366 C 78.170329 2.342991 78.706787 1.270074 78.993245 0.827366 C 78.930745 1.410699 78.581787 2.676324 77.566162 4.577366 Z M 81.915121 0.176324 C 81.805746 0.0356989 81.649496 -0.0268011 81.493246 -0.0111761 C 80.586995 0.145074 79.623454 3.514866 79.35262 4.546116 C 78.560954 7.566949 77.566162 11.853408 76.75887 15.697158 C 76.378662 17.514867 76.081787 19.051325 75.889078 20.155492 C 75.57137 22.025284 75.618245 22.259659 75.920328 22.342992 C 75.951579 22.358617 75.982829 22.358617 76.014079 22.358617 C 76.300537 22.358617 76.441162 21.9732 76.586995 21.56695 C 76.63387 21.405492 76.555745 21.233617 76.394287 21.186742 C 76.378662 21.165909 76.363037 21.165909 76.347412 21.165909 C 76.680745 18.895075 78.04012 12.259658 79.430745 6.712783 C 79.430745 6.697158 79.44637 6.681533 79.461995 6.660699 C 81.519287 3.405491 82.326579 0.811741 81.915121 0.176324 Z M 79.967204 4.577366 C 80.57137 2.342991 81.107829 1.270074 81.394287 0.827366 C 81.331787 1.410699 80.982829 2.676324 79.967204 4.577366 Z M 85.014079 11.4732 C 84.873454 11.37945 84.680746 11.405491 84.586996 11.551325 C 83.404704 13.212783 82.435954 14.25445 81.488037 14.936742 C 81.014079 15.270075 80.555745 15.332575 80.253662 15.113825 C 80.060954 14.967992 79.47762 14.337783 80.159912 12.124241 C 81.691162 10.853408 82.529704 9.655491 82.310954 9.020074 C 82.232829 8.832574 82.040121 8.702366 81.836996 8.702366 C 81.201579 8.717991 80.238037 9.811741 79.607829 11.853408 C 78.831787 14.369033 79.461995 15.2857 79.904704 15.603408 C 80.128662 15.775283 80.378662 15.853408 80.66512 15.853408 C 81.029704 15.853408 81.441162 15.712783 81.836996 15.426325 C 82.847412 14.697158 83.842204 13.624241 85.081787 11.900283 C 85.170329 11.75445 85.144287 11.56695 85.014079 11.4732 Z M 81.706787 9.369033 C 81.644287 9.619033 81.373454 10.124241 80.63387 10.884658 C 81.045329 9.967991 81.488037 9.525283 81.706787 9.369033 Z M 89.493246 11.405491 C 89.347413 11.332575 89.159913 11.363825 89.076579 11.50445 C 88.003663 13.134658 86.217204 15.853408 85.045329 15.603408 C 84.857829 15.551325 84.701579 15.426325 84.586996 15.217992 C 84.269287 14.650283 84.316162 13.514866 84.680746 12.514866 C 85.076579 11.452366 85.550537 11.186741 85.644287 11.202366 C 85.659912 11.217991 85.758871 11.421116 85.628662 11.915908 C 85.581787 12.087783 85.680746 12.244033 85.836996 12.296116 C 86.014079 12.327366 86.170329 12.228408 86.217204 12.072158 C 86.519288 10.931533 85.993246 10.681533 85.836996 10.613825 C 85.253662 10.44195 84.540121 11.139866 84.113037 12.311741 C 83.748454 13.290908 83.592204 14.681533 84.066162 15.520075 C 84.253662 15.884658 84.555746 16.108617 84.920329 16.186742 C 85.014079 16.217992 85.107829 16.217992 85.206787 16.217992 C 86.581788 16.217992 88.066163 14.145075 89.586996 11.837783 C 89.680746 11.69195 89.633871 11.50445 89.493246 11.405491 Z M 102.300539 5.665908 C 102.097414 5.384658 101.180747 5.207574 91.35783 5.431533 C 91.675538 4.145074 91.956788 2.994032 92.211996 2.056532 C 92.258871 1.884657 92.159913 1.723199 92.003663 1.676324 C 91.847413 1.634657 91.675538 1.723199 91.623455 1.884657 C 91.35783 2.879449 91.055746 4.082574 90.722413 5.447158 C 89.852621 5.457574 88.904704 5.473199 87.873454 5.504449 C 86.467204 5.540908 85.357829 5.572158 84.935954 5.572158 C 84.758871 5.572158 84.618246 5.712783 84.618246 5.874241 C 84.618246 6.046116 84.758871 6.191949 84.935954 6.191949 C 85.373454 6.171116 86.482829 6.155491 87.894288 6.108616 C 88.633871 6.092991 89.555746 6.077366 90.581788 6.046116 C 89.899496 8.926324 89.123454 12.374241 88.430746 15.744033 C 87.925538 18.207575 87.508871 20.342992 87.243246 21.915909 C 87.102621 22.733617 87.003663 23.384659 86.956788 23.827367 C 86.894288 24.426325 86.863038 24.775284 87.159913 24.889867 C 87.206788 24.889867 87.243246 24.905492 87.290121 24.905492 C 87.560954 24.905492 87.701579 24.525284 87.826579 24.176325 C 87.894288 24.020075 87.810954 23.842992 87.654704 23.780492 C 87.623454 23.780492 87.607829 23.764867 87.576579 23.764867 C 87.732829 22.530492 88.206788 19.759658 89.123454 15.395075 C 89.805746 12.087783 90.550538 8.780491 91.211996 6.030491 C 95.560955 5.936741 101.211997 5.858616 101.85783 6.077366 C 101.972414 6.171116 102.113039 6.171116 102.243247 6.092991 C 102.363039 5.999241 102.399497 5.806533 102.300539 5.665908 Z M 95.675538 11.405491 C 95.529705 11.31695 95.35783 11.363825 95.26408 11.50445 C 94.20158 13.212783 92.430746 14.827367 91.894288 14.608616 C 91.831788 14.572158 91.32658 14.275283 92.019288 11.5982 C 92.050538 11.421116 91.95158 11.264866 91.800538 11.217991 C 91.623455 11.186741 91.461996 11.280491 91.415121 11.436741 C 90.847413 13.671116 90.925538 14.858617 91.63908 15.1607 C 91.748455 15.202367 91.863038 15.217992 91.972413 15.217992 C 93.159913 15.217992 94.977621 13.0982 95.784913 11.822158 C 95.863038 11.676325 95.816163 11.488825 95.675538 11.405491 Z M 91.935955 10.124241 C 92.743246 10.176325 92.727621 9.165908 92.081788 9.384658 C 91.748455 9.478408 91.32658 10.092991 91.935955 10.124241 Z M 100.779705 11.56695 C 100.63908 11.452366 100.45158 11.488825 100.352622 11.613825 C 99.691163 12.467991 98.597413 13.181533 97.758872 13.020075 C 97.779705 12.9107 97.790122 12.801325 97.790122 12.69195 C 97.899497 10.900283 97.347413 10.540908 97.01408 10.478408 C 96.63908 10.395075 96.238038 10.681533 96.050538 11.155491 C 95.972413 11.124241 95.878663 11.124241 95.800538 11.186741 C 95.165121 11.582575 94.644288 12.592991 94.925538 13.686741 C 95.118246 14.337783 95.560955 14.744033 96.149496 14.744033 C 96.70158 14.744033 97.284913 14.337783 97.581788 13.608616 C 98.691163 13.842991 100.019288 13.020075 100.82658 11.994033 C 100.941163 11.853408 100.909913 11.6607 100.779705 11.56695 Z M 96.165121 14.145075 C 96.149496 14.145075 96.149496 14.145075 96.149496 14.145075 C 95.748455 14.12945 95.57658 13.749241 95.529705 13.530491 C 95.373455 12.994033 95.498455 12.244033 95.941163 11.837783 C 95.972413 12.374241 96.269288 12.962783 97.029705 13.369033 C 96.810955 13.874241 96.430747 14.145075 96.165121 14.145075 Z M 97.191163 12.6607 C 97.175538 12.69195 97.175538 12.7232 97.175538 12.75445 C 96.571372 12.358616 96.477622 11.853408 96.586997 11.452366 C 96.67033 11.202366 96.82658 11.077366 96.904705 11.077366 C 96.988038 11.092991 97.253663 11.395075 97.191163 12.6607 Z M 106.477622 11.4732 C 106.331789 11.395075 106.144289 11.436741 106.060955 11.5982 C 105.685955 12.244033 104.685955 14.00445 104.118247 13.94195 C 104.008872 13.921116 103.691164 13.770075 103.373455 12.6607 C 103.149497 11.884658 102.852622 11.155491 102.26408 11.124241 C 101.836997 11.092991 101.368247 11.421116 100.633872 12.7857 C 100.82658 12.103408 101.034913 11.421116 101.191163 10.869033 C 101.253663 10.665908 101.300538 10.494033 101.347414 10.31695 C 101.394289 10.1607 101.300538 9.988825 101.13908 9.936741 C 100.98283 9.889866 100.810955 9.988825 100.76408 10.1607 C 100.717205 10.31695 100.665122 10.509658 100.602622 10.697158 C 100.191163 12.103408 99.57658 14.238825 99.42033 15.5357 C 99.404705 15.681533 99.498455 15.822158 99.63908 15.853408 C 99.67033 15.869033 99.685955 15.869033 99.722413 15.869033 C 99.842205 15.869033 99.956788 15.790908 100.003663 15.681533 C 101.488039 11.978408 102.092205 11.7232 102.23283 11.7232 C 102.26408 11.7232 102.488039 11.790908 102.784914 12.832575 C 103.102622 13.921116 103.519289 14.478408 104.055747 14.540908 C 104.863039 14.634658 105.586997 13.639866 106.581789 11.900283 C 106.680747 11.738825 106.613039 11.56695 106.477622 11.4732 Z M 112.800539 11.37945 C 112.670331 11.264866 112.482831 11.280491 112.373456 11.405491 C 111.123456 12.8482 109.159914 15.145075 108.847414 15.551325 C 108.748456 15.665908 108.654706 15.790908 108.560956 15.921117 C 108.430747 15.603408 108.274497 15.301325 108.071372 14.983617 C 107.305747 13.811741 106.628664 12.707575 106.659914 11.931533 C 106.696372 11.31695 107.008872 10.775283 107.529706 10.457575 C 107.956789 10.207575 108.430747 10.1607 108.795331 10.332575 C 108.935956 10.395075 109.128664 10.332575 109.191164 10.176325 C 109.269289 10.030491 109.206789 9.842991 109.050539 9.780491 C 108.514081 9.525283 107.816164 9.587783 107.217206 9.936741 C 106.519289 10.363825 106.10783 11.077366 106.060955 11.900283 C 106.01408 12.863825 106.711997 14.020075 107.560956 15.31695 C 107.831789 15.728408 108.008872 16.124242 108.113039 16.50445 C 106.883872 18.176325 105.555747 20.332575 106.23283 20.994034 C 106.347414 21.108617 106.488039 21.150284 106.628664 21.150284 C 106.883872 21.150284 107.170331 21.030492 107.467206 20.790909 C 108.321372 20.077367 109.206789 18.462783 108.779706 16.62945 C 108.951581 16.4107 109.128664 16.171117 109.321372 15.936742 C 109.639081 15.5357 111.597414 13.244033 112.831789 11.806533 C 112.941164 11.676325 112.925539 11.488825 112.800539 11.37945 Z M 107.659914 19.650283 C 107.232831 20.2857 106.800539 20.540909 106.659914 20.556534 C 106.597414 20.332575 106.800539 19.415908 108.274497 17.327367 C 108.336997 18.462783 107.863039 19.332575 107.659914 19.650283 Z M 107.659914 19.650283 " stroke="#38b6ff" stroke-width="0.464748" stroke-opacity="1" stroke-miterlimit="4"/><path stroke-linecap="butt" transform="matrix(0.000000000000000059, -0.96204, 1.024381, 0.000000000000000063, 123.93735, 178.673441)" fill="none" stroke-linejoin="miter" d="M 0.00162786 0.000146468 L 62.39344 0.000146468 " stroke="#38b6ff" stroke-width="1" stroke-opacity="1" stroke-miterlimit="4"/><path stroke-linecap="butt" transform="matrix(0.000000000000000059, -0.964085, 1.024381, 0.000000000000000063, 282.611616, 166.144911)" fill="none" stroke-linejoin="miter" d="M 0.000394405 0.00162528 L 50.307137 0.00162528 " stroke="#38b6ff" stroke-width="1" stroke-opacity="1" stroke-miterlimit="4"/></svg>